<?xml version="1.0" standalone="no"?>
<!DOCTYPE svg PUBLIC "-//W3C//DTD SVG 1.1//EN" "http://www.w3.org/Graphics/SVG/1.1/DTD/svg11.dtd" >
<svg xmlns="http://www.w3.org/2000/svg">
<metadata>
Created by FontForge 20120731 at Thu Mar 17 16:42:40 2016
 By Ads
</metadata>
<defs>
<font id="iconfont" horiz-adv-x="1024" >
  <font-face 
    font-family="iconfont"
    font-weight="500"
    font-stretch="normal"
    units-per-em="1024"
    panose-1="2 0 6 3 0 0 0 0 0 0"
    ascent="896"
    descent="-128"
    x-height="792"
    bbox="-0.320611 -212 1484 899"
    underline-thickness="50"
    underline-position="-100"
    unicode-range="U+0078-E65E"
  />
<missing-glyph horiz-adv-x="374" 
d="M34 0v682h272v-682h-272zM68 34h204v614h-204v-614z" />
    <glyph glyph-name=".notdef" horiz-adv-x="374" 
d="M34 0v682h272v-682h-272zM68 34h204v614h-204v-614z" />
    <glyph glyph-name=".null" horiz-adv-x="0" 
 />
    <glyph glyph-name="nonmarkingreturn" horiz-adv-x="341" 
 />
    <glyph glyph-name="x" unicode="x" horiz-adv-x="1001" 
d="M281 543q-27 -1 -53 -1h-83q-18 0 -36.5 -6t-32.5 -18.5t-23 -32t-9 -45.5v-76h912v41q0 16 -0.5 30t-0.5 18q0 13 -5 29t-17 29.5t-31.5 22.5t-49.5 9h-133v-97h-438v97zM955 310v-52q0 -23 0.5 -52t0.5 -58t-10.5 -47.5t-26 -30t-33 -16t-31.5 -4.5q-14 -1 -29.5 -0.5
t-29.5 0.5h-32l-45 128h-439l-44 -128h-29h-34q-20 0 -45 1q-25 0 -41 9.5t-25.5 23t-13.5 29.5t-4 30v167h911zM163 247q-12 0 -21 -8.5t-9 -21.5t9 -21.5t21 -8.5q13 0 22 8.5t9 21.5t-9 21.5t-22 8.5zM316 123q-8 -26 -14 -48q-5 -19 -10.5 -37t-7.5 -25t-3 -15t1 -14.5
t9.5 -10.5t21.5 -4h37h67h81h80h64h36q23 0 34 12t2 38q-5 13 -9.5 30.5t-9.5 34.5q-5 19 -11 39h-368zM336 498v228q0 11 2.5 23t10 21.5t20.5 15.5t34 6h188q31 0 51.5 -14.5t20.5 -52.5v-227h-327z" />
    <glyph glyph-name="uniE600" unicode="&#xe600;" 
d="M745 777q-87 17 -145 47.5t-73 52.5l-15 22q-3 -3 -7.5 -6.5t-19 -14t-30 -21t-38 -23.5t-43.5 -23.5t-46.5 -20t-47.5 -13.5q-111 -22 -221 -11q0 -6 0.5 -16.5t1.5 -43.5t2 -67t2 -82.5t2 -94t2 -97.5t1 -98q0 -148 252 -302q99 -60 190 -96q9 4 25 11t62 30t88 48
t93 62t88 74t62 83t25 90q0 222 11 499q-111 -11 -221 11zM900 284q0 -30 -13 -60.5t-35.5 -57.5t-52 -53t-61.5 -48t-64 -41.5t-61.5 -34t-52 -25.5t-35.5 -16l-13 -6q-8 3 -22 9t-54.5 25.5t-77 40.5t-81.5 52.5t-77 63.5t-54 72t-22 79q0 53 -1 116.5t-2.5 116t-3 97.5
t-2.5 71l-1 26q97 -10 194 9q27 5 58 18t56 27t46 28t32 23l12 8l1 -2q1 -2 5 -7t8.5 -10t13.5 -13t20 -15t27 -15t34 -15t42.5 -14.5t52.5 -12.5q43 -8 91.5 -10.5t75.5 -0.5l27 2q-10 -238 -10 -427zM417 575l-82 29q-5 -14 -11 -28t-14 -29q-13 -25 -34 -57
q-11 -16 -23.5 -32t-27.5 -32l20 -16q9 -7 14 -11q6 -5 6 -4l9 6l1 1q3 3 9 8v-210h79v291q3 3 5 7l6 6l4 8q3 3 5.5 6t4.5 6l6 10q3 5 5.5 9t4.5 8q8 13 13 24zM694 321q-10 9 -18.5 18.5t-15.5 19.5h107v36h-143v49h63q32 0 42.5 14.5t10.5 40.5v38q0 22 -8 35
q-4 6 -12 10.5t-20.5 7t-31 3t-41.5 -1.5q-48 -3 -127 -12v9h-78v-152h78v8h42v-49h-147v-36h75q-2 -10 -6.5 -25t-13 -32t-22 -34.5t-33.5 -33.5l31 -29q14 10 25.5 20t21.5 19l13 13q6 6 11 12t10 11q3 5 6.5 9t6.5 8l4 8q3 4 5 8q4 7 7 14t6 13v-140h82v140q3 -6 7 -12.5
t8 -14.5q9 -15 22 -32q3 -4 6.5 -8.5t7.5 -8.5l9 -8l8 -10q6 -5 12.5 -11t14 -12t15.5 -12l47 54q-8 4 -16 8.5t-15.5 9t-15.5 8.5q-19 13 -40 30zM500 479v67q10 1 20 2.5t20 2.5q18 3 40 5t44 2q5 0 9.5 -0.5t8 -1t6 -1.5t4.5 -2.5t3 -2.5q7 -8 7 -21v-22q0 -4 -1 -7.5
t-3 -7.5q-4 -5 -11 -9t-23 -4h-124z" />
    <glyph glyph-name="uniE601" unicode="&#xe601;" 
d="M511 832q-61 0 -148.5 -18t-159 -36.5t-93.5 -18.5v-493q1 -14 5 -28.5t12 -36t22.5 -43t35 -46.5t51 -48t69 -45.5t91.5 -43t115 -35.5q98 24 173 61t115.5 72.5t67 76.5t35 66.5t10.5 49.5v493q-22 0 -121 25q-193 48 -280 48zM864 280q-2 -14 -6 -28.5t-14.5 -38
t-26 -45t-43 -47t-62.5 -47.5t-86.5 -43t-114.5 -37q-85 21 -151 53.5t-102 63.5t-59.5 67t-30.5 58.5t-10 43.5v434q20 0 83 16t140 32t130 16q43 0 100.5 -10t103.5 -22t89 -22t60 -10v-434zM278 592v48h470v-48h-214v-128h204v-45h-204v-189h227v-43h-500v43h73v249h52
v-249h100v362h-208z" />
    <glyph glyph-name="uniE602" unicode="&#xe602;" 
d="M819 803h-56q-13 0 -23.5 -7t-10.5 -18q0 -12 11 -21.5t23 -9.5h56q25 0 40 -15.5t15 -40.5v-643q0 -25 -15 -40.5t-40 -15.5h-602q-26 0 -48 16t-22 40v643q0 25 15.5 40.5t40.5 15.5h70q7 0 12 4.5t7 11.5t2 15q0 12 -5 18.5t-16 6.5h-70q-56 0 -84 -31t-28 -82v-636
q0 -53 31 -85.5t87 -32.5h604q57 0 87 30t30 88v636q0 24 -7 44.5t-21 36t-35.5 24t-47.5 8.5zM273 551q0 -6 2.5 -11.5t6 -9t9 -6t10.5 -2.5h420q12 0 20.5 8.5t8.5 20t-8.5 20t-20.5 8.5h-420q-20 0 -26 -19q-2 -5 -2 -9zM720 425h-419q-11 0 -19.5 -8.5t-8.5 -20.5
q0 -7 4 -14t10.5 -10.5t13.5 -3.5h420q6 0 11 2t9 6t6.5 9t2.5 11q-1 13 -9.5 21t-20.5 8zM720 257h-419q-5 0 -10.5 -2.5t-9 -6t-6 -9t-2.5 -10.5q0 -4 0.5 -7t2 -6t3.5 -5.5t4.5 -4.5t5.5 -3l6 -2q3 -1 6 -1h420q6 0 11 2.5t9 6t6.5 9t2.5 11.5q-1 12 -9.5 20t-20.5 8z
M414 733h195q7 0 13.5 2.5t11.5 7t9 10.5t6 13.5t2 14.5q0 20 -12.5 34.5t-30.5 14.5h-194q-17 0 -29.5 -14.5t-12.5 -34t12.5 -34t29.5 -14.5zM414 733z" />
    <glyph glyph-name="uniE603" unicode="&#xe603;" 
d="M512.5 -63q-51.5 0 -116.5 33.5t-124 90.5q-66 62 -102 132.5t-36 135.5v350q0 13 9 22t22 9l35 1q72 1 145 31q78 32 128 68l21 15q18 13 36 0l21 -15q3 -2 7 -5t17 -10.5t26.5 -15.5t35 -18t42.5 -19q73 -30 146 -31l34 -1q8 0 15.5 -4.5t11.5 -11.5t4 -15v-350
q0 -65 -36 -135.5t-101 -132.5q-60 -57 -124.5 -90.5t-116 -33.5zM197 648v-319q0 -35 14 -73t40.5 -76t63.5 -74q50 -48 104 -77t93 -29q26 0 59 13t69 37.5t69 55.5q57 54 87.5 112.5t30.5 110.5v319h-3q-85 2 -169 36q-36 15 -71 33.5t-48 27t-22 14.5l-2 2l-2 -2
q-56 -40 -141 -75q-84 -34 -168 -36h-4zM471 249q-17 0 -29 12l-103 103q-12 12 -12 28t12 28t28.5 12t27.5 -12l76 -75l178 178q3 3 6 5t6 3.5t6.5 2.5t6.5 1h6q4 0 7.5 -1t6.5 -2.5t6 -3.5t5 -5q12 -11 12 -27.5t-12 -28.5l-206 -206q-12 -12 -28 -12z" />
    <glyph glyph-name="uniE604" unicode="&#xe604;" 
d="M513 51q-28 0 -60.5 8.5t-69.5 25.5t-78 43q-61 37 -106 76l-4 2v508h636v-507l-2 -3q-5 -5 -13 -12.5t-33 -27t-50 -36.5t-50.5 -30t-49.5 -23q-63 -24 -120 -24zM214 215q46 -38 101 -72q119 -73 198 -73q98 0 210 73q16 11 32 22.5t27.5 21.5t18.5 16.5t12 10.5v481
h-599v-480zM378 583h264v-44q-110 -123 -146 -333h-66q31 178 133 322h-185v55z" />
    <glyph glyph-name="uniE605" unicode="&#xe605;" 
d="M511 832q-61 0 -148.5 -18t-159 -36.5t-93.5 -18.5v-493q1 -14 5 -28.5t12 -36t22.5 -43t35 -46.5t51 -48t69 -45.5t91.5 -43t115 -35.5q98 24 173 61t115.5 72.5t67 76.5t35 66.5t10.5 49.5v493q-22 0 -121 25q-193 48 -280 48zM864 280q-2 -14 -6 -28.5t-14.5 -38
t-26 -45t-43 -47t-62.5 -47.5t-86.5 -43t-114.5 -37q-85 21 -151 53.5t-102 63.5t-59.5 67t-30.5 58.5t-10 43.5v434q20 0 83 16t140 32t130 16q43 0 100.5 -10t103.5 -22t89 -22t60 -10v-434zM278 592v48h470v-48h-214v-128h204v-45h-204v-189h227v-43h-500v43h73v249h52
v-249h100v362h-208z" />
    <glyph glyph-name="uniE606" unicode="&#xe606;" 
d="M949 619q-11 11 -26.5 11t-26.5 -11l-382 -386l-387 384q-11 11 -26.5 11t-26.5 -11q-7 -7 -9.5 -17t0 -19.5t9.5 -16.5l412 -408h1l1 -1v-1q11 -11 26 -11q8 0 15 3t12 8l408 412q4 4 7 9.5t3.5 11t0 11.5t-3.5 11.5t-7 9.5zM949 619z" />
    <glyph glyph-name="uniE607" unicode="&#xe607;" 
d="M784 588l-272 -272l-272 272q-18 18 -44.5 18t-45.5 -18q-12 -13 -16.5 -29.5t0 -33t16.5 -28.5l317 -317q9 -9 21 -13.5t24 -4.5t24 4.5t21 13.5l317 317q7 8 12 17t6 18.5t0 19.5t-6 19t-12 17q-19 18 -45.5 18t-44.5 -18z" />
    <glyph glyph-name="uniE608" unicode="&#xe608;" 
d="M512 124l-279 279l46 45l233 -233l233 233l46 -45z" />
    <glyph glyph-name="uniE609" unicode="&#xe609;" horiz-adv-x="1000" 
d="M662 662v-499l-299 250zM662 662z" />
    <glyph glyph-name="uniE60A" unicode="&#xe60a;" 
d="M805 227q-73 0 -117 -58l-307 183q6 22 6 42q0 4 -1 13l307 185q21 -24 50 -37.5t62 -13.5q60 0 103 42.5t43 103.5t-43 103.5t-103.5 42.5t-103.5 -42.5t-43 -103.5q0 -23 8 -46l-305 -158q-23 36 -60 57.5t-81 21.5q-70 0 -119 -49t-49 -118.5t49 -118.5t119 -49
q74 0 124 56l319 -165q-1 -5 -2 -9.5t-1 -8.5l-2 -10v-9q0 -30 12 -57t31.5 -46.5t46.5 -31t57 -11.5q60 0 103 42.5t43 103.5q0 30 -11.5 57t-31 46.5t-47 31t-56.5 11.5z" />
    <glyph glyph-name="uniE60B" unicode="&#xe60b;" 
d="M583 522q-7 6 -12.5 10.5t-12 9t-14 6.5t-14.5 2q-14 0 -28.5 -8t-28.5 -20q-7 -8 -280 -254v-188q1 -13 9 -22q10 -8 22 -9h173q7 0 11.5 4.5t4.5 11.5v134q1 7 4 11q5 5 11 5h195q7 0 11.5 -4.5t4.5 -11.5v-134q0 -7 4 -11q5 -5 11 -5h177q13 0 22 9q3 3 5 6.5t3 7.5
t1 8v187q-271 247 -279 255zM976 356q0 10 -5 19.5t-15 18.5l-22 22q-8 9 -18.5 19t-23 21.5t-26.5 24.5t-29 27l-30 30q-15 14 -31 29t-31 29.5t-31 29.5q-28 27 -54 52q-24 22 -42 40q-17 16 -22 20q-28 27 -67 26q-20 0 -38.5 -8t-34.5 -25q-3 -2 -11 -9.5t-21 -19.5
q-27 -25 -65 -61q-38 -35 -82 -75q-22 -20 -42.5 -39t-40.5 -37q-19 -17 -35.5 -32.5t-30.5 -28.5q-28 -25 -33 -30q-14 -14 -15 -36t17 -38q16 -14 38 -13.5t36 11.5q4 3 26 23q23 21 52 48q16 14 32.5 29.5t33.5 31.5q36 32 68 62q31 29 57 53q24 22 33 30q14 12 27.5 18
t27.5 7q28 1 56 -25q6 -5 30 -27q24 -23 55 -52q11 -10 22 -20.5t22.5 -21.5t23.5 -22q18 -17 35 -33t33 -30q39 -36 55 -51q22 -21 27 -24q13 -12 35.5 -13t39.5 14q15 14 14 36z" />
    <glyph glyph-name="uniE60C" unicode="&#xe60c;" 
d="M256 512l256 -321l257 321h-513z" />
    <glyph glyph-name="uniE60D" unicode="&#xe60d;" 
d="M411 32l298 308l43 44l-43 44l-298 308l-43 -44l299 -308l-299 -308z" />
    <glyph glyph-name="uniE60E" unicode="&#xe60e;" 
d="M840 741l-7 11h-613l-7 -9q-55 -71 -86 -134.5t-36.5 -110t-1.5 -77t16 -55.5q10 -20 25 -37t33 -28.5t39 -18t42 -6.5h5q86 3 146 65q53 -61 133 -61q83 0 136 64q32 -26 72 -46t81 -20q62 0 105 50q20 23 28 53t5.5 63t-10 66t-21.5 67t-26 60.5t-27 52t-21 35.5
t-10 16zM244 324q-27 0 -53.5 16.5t-42.5 47.5q-9 19 -12 44t2.5 64t32 93t73.5 115h563q17 -27 34 -59t34 -74t26 -79.5t6 -73.5t-21 -58q-29 -34 -69 -34q-21 0 -44 8.5t-42.5 21.5t-31 21.5t-19.5 16.5v166h-48v-179q-39 -53 -104 -53q-12 0 -23 2t-20 5.5t-17 7.5t-15 9
t-12 10t-9.5 10t-7 8.5t-4.5 6.5v173h-48v-172q-9 -12 -21.5 -23.5t-41.5 -25.5t-62 -15h-3zM804 36q-6 -14 -14 -21.5t-14 -10.5h-496q-8 0 -14.5 2.5t-11.5 7t-9 9.5t-6 10t-4 9.5t-3 7.5v2v156h-48v-160q6 -32 30 -62t66 -30l506 1q6 1 14.5 5t25 20.5t25.5 41.5l1 188
h-48v-176z" />
    <glyph glyph-name="uniE60F" unicode="&#xe60f;" 
d="M722 -68l-453 451l451 453l33 -33l-419 -420l421 -418z" />
    <glyph glyph-name="uniE610" unicode="&#xe610;" 
d="M610 683l-136 -238q-2 5 -5.5 11.5t-8 14t-10 17t-11.5 20t-13 22.5t-14.5 25t-16.5 28t-18 30.5t-19 33.5l-20 36h-65l148 -252h-126v-51h147v-81h-147v-47h147v-121h59v121h141v47h-142v81h142v51h-116l147 252h-63zM229 42q-24 0 -41 17t-17 41v605q0 8 2 15.5t5.5 14
t9 11.5t12 9t14 6t15.5 2h493q24 0 41 -17t17 -41v-402q34 -4 65 -19v428q0 47 -34 81.5t-82 34.5h-507q-31 0 -58 -16t-42.5 -42.5t-15.5 -57.5v-619q0 -31 15.5 -58t42.5 -42.5t58 -15.5h376q-12 15 -20.5 31t-14.5 34h-334zM756 265q-27 0 -51.5 -8t-44.5 -23t-35 -35
t-23 -45t-8 -51q0 -68 47.5 -115.5t114.5 -47.5t114.5 47.5t47.5 115t-47.5 115t-114.5 47.5zM755.5 -20q-33.5 0 -61.5 16.5t-44.5 44.5t-16.5 62q0 25 9.5 47.5t26 39t39.5 26t48 9.5q16 0 32 -4t29.5 -12t25 -19.5t19.5 -25t12.5 -29.5t4.5 -32q0 -34 -16.5 -62
t-45 -44.5t-62 -16.5zM774 203h-35v-86v-18v-17h95v35h-60v86z" />
    <glyph glyph-name="uniE611" unicode="&#xe611;" 
d="M836 828q-28 0 -53 -11t-43.5 -29t-29 -43.5t-10.5 -53.5q0 -19 5 -37l-399 -168q-7 13 -16.5 23.5t-21 18.5t-24 14t-27 9.5t-29.5 3.5q-57 0 -97 -40t-40 -97t40 -97t97 -40q29 0 55 11.5t45 32.5l257 -185q-16 -30 -16 -63q0 -28 11 -53.5t29 -43.5t43.5 -29t52.5 -11
q37 0 68.5 18.5t50 49.5t18.5 69q0 56 -40 96t-97 40q-60 0 -101 -45l-256 185q5 9 8.5 19.5t5.5 22t2 23.5q0 18 -5 37l399 167q9 -15 21.5 -27.5t27.5 -21.5t33 -13.5t36 -4.5q57 0 97 40t40 96.5t-40 96.5t-97 40zM665 179q43 0 73 -30t30 -72.5t-30 -72.5t-72.5 -30
t-72.5 30t-30 73q0 55 47 86q26 16 55 16zM187.5 315q-42.5 0 -72.5 30.5t-30 73t30 72.5t72.5 30t72.5 -30t30 -72.5t-30 -73t-72.5 -30.5zM836 589q-42 0 -72 30t-30 72.5t30 72.5t72 30t72 -30t30 -73q0 -14 -3.5 -27t-10 -24.5t-16 -21t-20.5 -16t-24.5 -10t-27.5 -3.5z
" />
    <glyph glyph-name="uniE612" unicode="&#xe612;" 
d="M829 772l-7 10h-610l-7 -9q-45 -57 -73.5 -110t-40 -91.5t-12.5 -74t4 -57.5t14 -41q20 -41 57.5 -65.5t80.5 -24.5h5q86 4 145 65q22 -25 55 -43t78 -18q33 0 62 11.5t45 24t29 28.5q19 -15 39.5 -28t52.5 -25.5t61 -12.5q15 0 29 3.5t27.5 9.5t25.5 15.5t22 21.5
q25 30 31.5 72t-4 88t-25 86.5t-36.5 80.5t-31.5 56.5t-16.5 27.5zM875 392q-10 -11 -20.5 -18.5t-22.5 -11t-26 -3.5q-20 0 -43.5 8.5t-43 21t-30.5 21.5t-19 17v163v1q0 10 -7 17t-17 7q-3 0 -5.5 -0.5t-5 -1.5t-4.5 -2.5t-3.5 -4t-3 -4.5t-2 -5t-0.5 -6v-177
q-39 -53 -104 -53q-22 0 -42 6.5t-33 17.5t-20 19t-12 15v172q0 4 -1.5 8t-3.5 7t-5 5t-6.5 3t-7.5 1q-3 0 -6.5 -0.5t-6 -2t-4.5 -4t-3.5 -5t-2.5 -5.5t-1 -7v-171q-4 -5 -8.5 -10t-13 -12.5t-18.5 -14t-22.5 -12.5t-28.5 -9.5t-34 -4.5h-3q-26 0 -53 16t-42 47
q-9 20 -12 44.5t2 63t32 92.5t73 115h561q14 -22 28 -48t29.5 -59t25.5 -66t15.5 -64.5t0.5 -59t-20 -46.5zM831.5 282q-6.5 0 -12 -3t-9 -8.5t-3.5 -12.5v0v-174q0 -20 -14 -34t-34 -14h-207h-288q-20 0 -34 14t-14 34v174q0 10 -7 17t-17 7q-4 0 -8 -1t-6.5 -3.5t-5 -5.5
t-3.5 -6.5t-1 -7.5v-178q0 -38 26.5 -65t64.5 -27h505q38 0 64.5 27t26.5 65v178q0 7 -3 12.5t-8.5 8.5t-12 3z" />
    <glyph glyph-name="uniE613" unicode="&#xe613;" 
d="M781 -84l-468 468l468 468l-4 4q2 3 3 6.5t1 6.5q0 11 -7.5 19t-18.5 8q-8 -1 -14 -4l-4 4l-494 -495l4 -4q-2 -2 -2.5 -4t-1 -4.5t-0.5 -4.5q0 -7 4 -13l-4 -4l494 -495l4 4q7 -4 14 -4q11 0 18.5 8t7.5 19q0 6 -4 13z" />
    <glyph glyph-name="uniE614" unicode="&#xe614;" 
d="M335.5 -112q-19.5 0 -36.5 10t-26.5 26.5t-9.5 35.5q0 30 21 51t51 21t51 -21t21 -51q0 -19 -9.5 -35.5t-26 -26.5t-36 -10zM829.5 -112q-29.5 0 -50.5 21t-21 51t21 51t50.5 21t50.5 -21t21 -51t-21 -51t-50.5 -21zM326 65q-39 0 -68.5 27t-34.5 66l-60 421l-34 198
q-2 12 -11.5 21t-20.5 9h-45q-8 0 -14.5 2.5t-11.5 7.5t-8 12t-3 14q0 15 11 26t26 11h45q39 0 69 -27t35 -66l34 -196l60 -424q1 -5 3 -9t5 -7.5t6.5 -6.5t8 -4.5t8.5 -1.5h574q15 0 25.5 -10.5t10.5 -26t-10.5 -26t-25.5 -10.5h-574zM370 206q-7 0 -13.5 2.5t-11.5 7
t-8 11t-3 13.5q-1 15 8 27q5 5 11.5 8.5t13.5 3.5l480 35q6 1 11.5 3t10 6t7.5 9t4 11l55 318q3 20 -8 32q-7 8 -16 8h-612q-7 0 -14 2.5t-12 7.5t-7.5 12t-2.5 14q0 10 4.5 18.5t13 13.5t18.5 5h612q42 0 70 -32q33 -37 27 -91l-56 -318q-5 -38 -34 -65q-4 -4 -8.5 -7
t-9.5 -5.5t-9.5 -5t-9.5 -4t-10.5 -2.5t-10.5 -1.5t-11 -1.5l-476 -35h-3z" />
    <glyph glyph-name="uniE615" unicode="&#xe615;" 
d="M233 800q65 0 111.5 -46t46.5 -111t-46.5 -111t-111.5 -46q-32 0 -61 12.5t-50 33.5t-33.5 50t-12.5 61q0 65 46 111t111 46zM312 658v60l-101 -90l-56 50v-60l56 -50zM938 270h-4q-3 0 -5.5 -0.5t-4.5 -0.5h-6h-176q-3 0 -5 1t-4.5 2.5t-4.5 3.5q-7 7 -7 12v1
q-1 47 -1 85v87q0 10 9 20q4 4 9.5 6.5t11.5 2.5h2h5q3 0 7 1q7 0 15.5 -0.5t18.5 -1.5q19 -2 41 -10.5t41 -26.5q30 -30 42 -74q7 -22 12.5 -44.5t10.5 -45.5q0 -1 1 -2v-1v-3q0 -12 -8 -12v0zM1013 258q-2 18 -6 36.5t-8.5 37t-10.5 37.5q-19 56 -55 106q-20 28 -49.5 48
t-63.5 33l-6 2l-8 2q-3 1 -6.5 2.5t-6.5 2t-7 1.5l-6 2q-4 1 -7.5 1.5t-7 1.5t-7 1.5t-6.5 0.5q-34 6 -66 3q-11 -1 -18 -15q-3 -7 -5 -13t-2 -11v-462q0 -4 1 -8t2.5 -8t3.5 -7.5t6 -6.5q12 -12 29 -12h17q0 24 10 45q3 8 6.5 14.5t8 12.5t9.5 11q16 16 37 26t46 10
q9 0 17 -1t15.5 -2.5t15.5 -3.5q22 -7 39 -21q8 -7 15 -16.5t12 -21.5q10 -22 10 -55h39q3 0 5 1.5t4 4.5q4 6 6 14t3 16t1 14v34q0 19 1 42q0 47 -7 101v0zM842 91q12 0 23 -4.5t20 -13.5q18 -18 18 -43q0 -26 -18 -44t-43 -18q-26 0 -43.5 18t-17.5 44q0 25 17.5 43
t43.5 18zM183 92q-13 0 -23.5 -4.5t-19.5 -13.5q-18 -18 -18 -44q0 -25 17.5 -43t43.5 -18t44 18t18 43q0 26 -18 44t-44 18zM428 693q7 -26 7 -53q0 -42 -16 -78.5t-43 -63.5t-64 -43q-18 -7 -37 -11t-40 -4q-42 0 -78.5 15.5t-63.5 42.5t-43 64q-8 18 -12 37.5t-4 40.5v9
q-13 -17 -21 -37q-1 -3 -2.5 -6t-2 -6.5t-1.5 -6.5t-1.5 -6.5t-0.5 -6.5t-0.5 -6.5t-0.5 -6.5v-498q0 -18 10.5 -27.5t27.5 -9.5h22q0 61 31 91.5t89 30.5q62 0 90.5 -33t28.5 -89h261q4 0 7.5 0.5t7 2t6.5 3.5l6 4q11 11 11 27l-2 624h-172z" />
    <glyph glyph-name="uniE616" unicode="&#xe616;" 
d="M902 23q-10 -9 -23 -9h-98q-6 0 -12 2.5t-11 6.5q-9 10 -9 23v130q0 7 2.5 12.5t7 10.5t10.5 7.5t12 2.5q14 0 23.5 -10t9.5 -23v-97h65q13 0 23 -10q3 -3 5 -6.5t3 -7.5t1 -9q0 -13 -9 -23v0zM957 130q-14 32 -39 57q-8 8 -17 15t-19 12.5t-20 10.5q-33 14 -69 14
q-19 0 -36.5 -3.5t-33.5 -10.5q-33 -14 -57 -38.5t-38.5 -57t-14.5 -68.5q0 -19 3.5 -36.5t10.5 -33.5t17 -30.5t22 -26.5q24 -24 56.5 -38t70.5 -14q18 0 35 3.5t34 10.5q32 14 56.5 38.5t38.5 57t14 69.5q0 36 -14 69zM192 -3q-18 0 -33 9t-24 24t-9 33v684q0 17 9 32.5
t24 24t33 8.5h558q27 0 46 -19t19 -46v-455q39 -4 73 -21v483q0 27 -10.5 51t-28 41.5t-41.5 28t-51 10.5h-573q-35 0 -65.5 -17.5t-48 -47.5t-17.5 -66v-699q0 -54 38.5 -92.5t92.5 -38.5h425q-26 33 -39 73h-378zM623 722h71l-166 -285h132v-57h-161v-92h161v-54h-160
v-136h-67v136h-166v54h166v92h-166v57h142l-167 285h73q26 -47 54 -95.5t46 -78.5t33 -56t21 -39z" />
    <glyph glyph-name="uniE617" unicode="&#xe617;" 
d="M954 -6q-1 138 -79.5 250t-204.5 160l16 16q8 8 15 17t13.5 18.5t12 19.5t9.5 21t7.5 22t6 22.5t3.5 23.5t1 24q0 101 -71.5 172t-171.5 71q-50 0 -95 -19t-77.5 -51.5t-51.5 -77.5t-19 -95q0 -36 10.5 -70.5t29 -63t45.5 -50.5q-126 -49 -204.5 -161.5t-78.5 -251.5
q0 -12 6 -22t16 -16t22 -6q18 0 31 13t13 31v1v2q1 76 32.5 144t86.5 117q6 6 14 12t15 10.5t13.5 9t12 8t9.5 6t6 3.5l3 1q14 8 29.5 14t31.5 11t32.5 8.5t34 5t34.5 1.5q86 0 162 -40l5 -3q3 -1 12 -6.5t17.5 -11t19 -13.5t19.5 -16q56 -49 87 -117t32 -145v-2
q0 -18 13 -31t31 -13t31 13t13 31v3zM511 433q-64 0 -109.5 45.5t-45.5 109.5t45.5 109.5t109.5 45.5t109.5 -45.5t45.5 -109.5q0 -75 -60 -122q-43 -32 -95 -33z" />
    <glyph glyph-name="uniE618" unicode="&#xe618;" 
d="M571 507q-32 30 -57 30q-8 0 -16.5 -2.5t-16.5 -7t-14.5 -9.5t-12.5 -11q-8 -7 -301 -271v-202q0 -14 10 -23.5t23 -9.5h186q7 0 12 5t5 12v144q0 7 4.5 11.5t11.5 4.5h209q7 0 12 -4.5t5 -11.5v-144q0 -4 1 -7t3 -5q5 -5 12 -5h190q13 0 23 10q5 5 7.5 11t2.5 12v200
q-16 14 -51.5 46.5t-76.5 70t-80 73t-64.5 59.5t-26.5 24zM992 329q-1 23 -21 42l-24 23q-18 18 -45 43t-59 56q-16 16 -32.5 31.5t-32.5 31.5q-17 16 -33.5 31.5t-32.5 30.5q-10 10 -21 20.5t-19.5 18.5t-18.5 17q-7 7 -13 12.5t-11.5 11t-10.5 10t-9 9.5q-9 8 -15 14t-9 8
q-30 28 -72 28q-14 0 -27.5 -4t-26 -12t-24.5 -20q-6 -5 -34 -31q-31 -28 -70 -65q-4 -3 -8.5 -7t-8.5 -8l-8 -8l-8 -8l-10 -8l-8 -8l-10 -8l-8.5 -8.5t-9 -8.5t-9.5 -9q-42 -38 -89 -81q-37 -34 -70 -65q-30 -27 -36 -33q-15 -14 -16 -38q0 -6 1 -11.5t3 -10.5t5.5 -10
t8.5 -9q17 -15 41 -14t39 12q4 4 28 25q12 11 26 24t30 28t33.5 31t36.5 34q19 17 37.5 33.5t35.5 33.5q31 29 61 56q25 23 36 32q28 26 58 26.5t60 -26.5q7 -6 32 -29q12 -12 27 -26t32 -30q33 -30 73 -68q20 -19 38 -36t35 -32q18 -17 32.5 -30t25.5 -24q12 -11 19.5 -18
t9.5 -8q4 -4 8 -6t9 -4t10.5 -2.5t11.5 -1.5q24 -1 42 15q16 15 15 38z" />
    <glyph glyph-name="uniE619" unicode="&#xe619;" 
d="M512 896q-33 0 -56 -23t-23 -56v-397q0 -33 23 -56t56 -23q22 0 40 10.5t28.5 28.5t10.5 40v397q0 21 -10.5 39.5t-28.5 29t-40 10.5zM512 -128q-187 0 -330 122q-136 116 -169 290q-9 48 -9 96q0 118 50.5 222.5t142.5 177.5q20 15 44.5 12t39.5 -22q10 -13 12 -28.5
t-3.5 -30.5t-18.5 -25q-71 -56 -109.5 -136t-38.5 -170q0 -105 52 -195t141.5 -142t195.5 -52t195.5 52t141.5 142t52 195q0 60 -17.5 116t-50.5 104.5t-80 85.5q-20 15 -22.5 39.5t12.5 44t39.5 22.5t43.5 -12q93 -73 143.5 -177.5t50.5 -222.5q0 -103 -40 -197
t-108.5 -162t-162.5 -108.5t-197 -40.5z" />
    <glyph glyph-name="uniE61A" unicode="&#xe61a;" 
d="M623 147q-13 0 -22.5 9.5t-9.5 22.5v350q0 13 9.5 22.5t22.5 9.5q7 0 12.5 -2.5t10 -7t7 -10.5t2.5 -12v-350q0 -7 -2.5 -12.5t-7 -10t-10 -7t-12.5 -2.5zM432 147q-13 0 -22.5 9.5t-9.5 22.5v350q0 13 9.5 22.5t22.5 9.5q9 0 16 -4.5t11.5 -11.5t4.5 -16v-350
q0 -13 -9.5 -22.5t-22.5 -9.5zM941 688h-159v64q0 39 -27.5 67t-67.5 28h-319q-19 0 -36.5 -7.5t-30.5 -20.5t-20.5 -30.5t-7.5 -36.5v-64h-159q-13 0 -22.5 -9.5t-9.5 -22.5q0 -8 4.5 -15.5t11.5 -12t16 -4.5h827q14 0 23 9.5t9 22.5q0 24 -22 31zM337 752q0 13 9 22.5
t22 9.5h319q14 0 23 -9.5t9 -22.5v-64h-382v64zM751 -44h-446q-40 0 -68 28t-28 68v477q0 14 9.5 23t22.5 9q9 0 16.5 -4t11.5 -11.5t4 -16.5v-477q0 -14 9.5 -23t22.5 -9h446q8 0 15.5 4t11.5 11.5t4 16.5v476q0 4 1.5 8.5t3.5 8t5 6.5t6.5 5t7.5 3t8 1q9 0 16 -4.5
t11.5 -11.5t4.5 -16v-476q0 -40 -28 -68t-67 -28z" />
    <glyph glyph-name="uniE61B" unicode="&#xe61b;" 
d="M636 284q-3 1 -6.5 3t-8.5 8.5t-8 15t-2.5 23.5t6.5 34q44 46 72 112t28 134q0 103 -59 160.5t-146 57.5q-56 0 -102 -24t-74.5 -74.5t-28.5 -119.5q0 -68 28 -134.5t73 -112.5q6 -16 6 -30.5t-3.5 -23t-9.5 -15.5t-11 -10t-8 -4q-63 -23 -117 -52t-94 -67.5t-40 -73.5
v-28q0 -126 382 -126q380 0 380 126v28q0 28 -22.5 57t-60.5 54t-82 45.5t-92 36.5v0zM636 284z" />
    <glyph glyph-name="uniE61C" unicode="&#xe61c;" 
d="M512 146l-448 446l31 30l417 -416l417 416l31 -30z" />
    <glyph glyph-name="uniE61D" unicode="&#xe61d;" 
d="M274 384l446 448l30 -31l-416 -417l416 -417l-30 -31z" />
    <glyph glyph-name="uniE61E" unicode="&#xe61e;" 
d="M512 622l448 -446l-31 -30l-417 416l-417 -416l-31 30z" />
    <glyph glyph-name="uniE61F" unicode="&#xe61f;" horiz-adv-x="1030" 
d="M1021 512q-8 7 -18.5 6t-16.5 -9l-43 -54q-2 32 -8 62q-27 127 -111 221t-203 134t-245 14t-219.5 -111t-133 -205t-13.5 -246.5t110 -220.5t203.5 -134t245.5 -14q135 29 235 129v1q1 0 1.5 1.5t1.5 1.5q1 3 2 5.5t1 5.5q0 8 -6 14t-14 6q-9 0 -16 -7q-43 -43 -97 -73
t-116 -43q-114 -24 -222 12.5t-184 121.5t-100 199.5t12 223.5t121 185.5t198 100.5q71 13 137 6t127 -36t109.5 -72t83.5 -103t49 -129q3 -13 5 -26.5t3 -26.5l-52 41q-8 7 -18 6t-17 -9q-4 -6 -5 -12.5t1.5 -12.5t7.5 -11l95 -77q4 -3 9 -4.5t10 -0.5t9.5 3t7.5 6l76 96
q5 6 6 12.5t-1.5 12.5t-7.5 10zM631 395v1q9 0 15.5 6t6.5 15q0 4 -1 7t-3 5.5t-5 4.5t-6 3.5t-7 1.5h-129v39l128 126v1q7 5 7.5 14t-5.5 16t-15 7.5t-16 -5.5l-120 -119l-128 125q-4 3 -9.5 4.5t-11 -0.5t-9.5 -6q-6 -7 -5.5 -16t7.5 -15l133 -131v-40h-129
q-9 0 -15.5 -6.5t-6.5 -15.5t6.5 -15.5t15.5 -6.5h129v-66h-129q-9 0 -15.5 -6.5t-6.5 -15.5t6.5 -15.5t15.5 -6.5h129v-128h1q0 -9 6 -15t15 -6t15.5 6t6.5 15v128h129v1q6 0 11 2.5t8 7.5t3 11t-3 11t-8 8t-11 3h-129v66h129zM631 395z" />
    <glyph glyph-name="uniE620" unicode="&#xe620;" 
d="M988 -83q-1 29 -6 58.5t-14 57.5t-22 55q-44 94 -125 159q-22 17 -44.5 31t-47 25.5t-50.5 20.5q-3 1 -10 3h1l1 1q11 6 22 12.5t21.5 14t20.5 16.5q21 18 38.5 40t30.5 47q37 71 33 150q-1 25 -6 48q-18 81 -76 142q-8 9 -17 17t-18.5 15.5t-19.5 13.5q-22 14 -45.5 24
t-48 15.5t-50.5 7.5q-20 1 -43 0q-24 -2 -47 -8q-79 -19 -137 -74q-39 -36 -62 -83q-35 -69 -31 -146q1 -22 5 -42q16 -82 73 -144q37 -41 88 -66q1 0 2 -1l-16 -5l-16 -6q-16 -6 -30 -13q-86 -41 -148 -113q-34 -38 -58 -83q-14 -28 -24.5 -57t-17.5 -60q-6 -28 -8 -54
q-1 -16 -1 -21q0 -15 1 -19q1 -7 4.5 -11.5t9.5 -7t12 -1.5q10 0 16.5 7t6.5 16q1 21 1 25q1 18 4 36q5 37 18 71q28 80 86 141q10 10 20.5 19.5t21.5 18t22.5 16.5t23.5 15q20 13 42 22.5t46 16.5q33 10 66 14q25 3 44 3h1h2h8h2q8 0 16 -1q25 -1 51 -6q53 -9 102 -33
q79 -38 136 -106q49 -60 72 -133q12 -38 16 -78q1 -7 1 -14t0.5 -13t0.5 -13q0 -10 7.5 -17.5t17.5 -6.5q7 0 12.5 3t9 9t3.5 12v6v6v5zM581 351q-19 -4 -43 -4h-2h-3h-6h-6q-2 0 -5.5 0.5t-5.5 0.5t-5.5 0.5t-5.5 1.5q-39 5 -76 24q-7 3 -14.5 7.5t-15.5 9.5q-33 23 -57 55
q-26 34 -39 75q-9 30 -11 63q-1 21 2 43q7 46 28 85q23 40 57 70q31 26 69 41q19 8 39.5 12.5t42.5 5.5q5 1 10.5 1t11 -0.5t11.5 -0.5q18 -2 35 -6q38 -8 72 -28q15 -9 28.5 -19.5t25.5 -23.5q8 -8 14.5 -16t12.5 -17q10 -15 18 -31.5t13 -34.5q9 -29 11 -61v-16
q0 -7 -1 -15q-2 -19 -6 -38q-4 -16 -10.5 -32t-15.5 -31q-11 -19 -24.5 -35.5t-30.5 -30.5q-25 -21 -55 -35t-63 -20z" />
    <glyph glyph-name="uniE621" unicode="&#xe621;" horiz-adv-x="1026" 
d="M811 662h37q7 0 12 -6l162 -203q3 -4 3 -9v-249q0 -19 -13.5 -32.5t-32.5 -13.5h-56q-6 -43 -37.5 -72.5t-74.5 -32.5v29q35 3 59 29t24 62q0 11 -3 22t-8.5 21t-13 18t-16.5 14t-19.5 10t-22.5 5v30q15 -1 28 -5.5t25 -11t22 -16t17.5 -21t12.5 -24.5t6 -27h57q3 0 6 1
t5.5 3.5t3.5 5.5t1 6v180h-184v30h184v34l-82 103h-102v30h79l-49 60h-30v30zM333 817q14 -7 26.5 -16.5t23.5 -20.5t20 -23h165q25 0 42 -18q17 -17 17 -42v-35h184v-30h-184v-453h57q4 29 20.5 53t43 38t55.5 14h8v-30h-4h-4q-37 0 -63.5 -26.5t-26.5 -64t26.5 -64
t63.5 -26.5h5q2 0 3 1v-30h-8q-45 0 -79.5 30t-39.5 75h-300q-6 -53 -51 -84v40q22 25 22 59q0 16 -5.5 31.5t-16.5 27.5v39q44 -30 51 -83h214v518q0 12 -9 21q-4 4 -9.5 6.5t-11.5 2.5h-146q9 -16 15 -33t9 -35.5t3 -37.5q0 -93 -66 -159q-22 -22 -50 -38v35q8 6 15.5 12
t13.5 12q11 11 20 23t16 25.5t11.5 28t7 30t2.5 31.5q0 80 -57 138q-13 13 -29 24v34v0zM811 572h-34q-13 0 -24 -6.5t-17.5 -17.5t-6.5 -24v-101q0 -20 14 -34t33 -14h35v30h-35q-7 0 -12 5t-5 13v101q0 4 1.5 7t3.5 5.5t5.5 4t7.5 1.5h34v30zM225 845q29 0 56.5 -7
t51.5 -21v-34q-23 16 -51 24.5t-57 8.5q-19 0 -36 -4v31q18 2 36 2v0zM333 65q-31 -22 -68 -22q-14 0 -28 3.5t-26 9.5t-22 15v43q27 -41 76 -41q41 0 68 32v-40zM333 459v-34q-50 -29 -108 -29q-9 0 -18 1l-18 2v30q17 -3 36 -3q59 0 108 33v0zM333 262v-39q-12 15 -30 23
t-38 8q-24 0 -44 -11t-32 -30v44q16 13 35.5 20t40.5 7q37 0 68 -22v0zM189 71q-38 30 -44 78h-46q-25 0 -42.5 17.5t-17.5 42.5v285q-19 28 -29 60t-10 67q0 93 66 159q52 51 123 63v-31q-59 -10 -102 -53q-57 -58 -57 -138.5t57 -137.5q20 -21 46.5 -34.5t55.5 -19.5v-30
q-34 6 -65 21.5t-55 38.5v-250q0 -13 8.5 -21.5t21.5 -8.5h46q6 47 44 78v-44q-15 -22 -15 -49q0 -9 2 -18t5 -17t8 -15v-43v0zM210 524q-4 -4 -9.5 -5t-10.5 0.5t-9 5.5l-68 72q-6 6 -5.5 14.5t6.5 14.5q6 5 14 5t14 -6l69 -73q5 -6 5 -14t-6 -14zM218 522q-6 -5 -14.5 -5
t-14.5 6l-2 3q-4 4 -5.5 9t0 10.5t5.5 8.5l128 121q4 4 9.5 5t10.5 -0.5t9 -5.5l2 -2q6 -6 5.5 -14.5t-6.5 -14.5z" />
    <glyph glyph-name="uniE622" unicode="&#xe622;" 
d="M87 640h234q10 32 24 64h-258q-10 0 -16.5 -9.5t-6.5 -22.5q0 -9 3 -16t8.5 -11.5t11.5 -4.5zM89 316h293q-9 16 -17 32t-14 32h-262q-10 0 -17 -9.5t-7 -22.5t7 -22.5t17 -9.5zM865 64h-777q-10 0 -17 -9t-7 -22.5t7 -22.5t17 -9h777q10 0 17 9t7 22q0 6 -1 10.5
t-3.5 8.5t-5.5 7t-6.5 4.5t-7.5 1.5zM954 154l-135 138q91 78 93 201q1 114 -78.5 195t-192.5 82q-56 1 -107 -20t-88 -57.5t-59.5 -87t-22.5 -106.5q-1 -113 78 -194t193 -83q43 0 73 6t60 24l140 -142q7 -7 20 -4t20 10t9.5 19t-3.5 19zM635 287q-86 1 -146.5 63
t-59.5 149q0 42 17 80.5t45.5 66t67 44t81.5 15.5q86 -1 147 -62.5t60 -148.5q-1 -57 -29.5 -104.5t-77 -75t-105.5 -27.5zM635 293z" />
    <glyph glyph-name="uniE623" unicode="&#xe623;" 
d="M752 320v-1v1zM272 320v-1v1zM544 798v2q0 13 -9.5 22.5t-22.5 9.5t-22.5 -9.5t-9.5 -22.5v-1q-69 -5 -132.5 -29.5t-114.5 -65.5t-89.5 -94.5t-59 -118.5t-20.5 -135q0 -6 0.5 -18.5t0.5 -17.5q4 41 34 72.5t69 31.5q43 0 73.5 -30.5t30.5 -73.5q1 43 31.5 73.5
t73.5 30.5q26 0 49.5 -12.5t38 -34t15.5 -44.5v-269q0 -27 -18.5 -45.5t-45.5 -18.5q-26 0 -44 19t-18 45q0 13 -9.5 22.5t-22.5 9.5t-22.5 -9.5t-9.5 -22.5q0 -53 37 -90.5t89 -37.5q54 0 91 38q37 37 37 90v271q9 88 104 88q43 0 73.5 -30t30.5 -73q1 43 31.5 73t73.5 30
q37 0 66.5 -31.5t35.5 -71.5q1 11 1 24q0 58 -15 114.5t-41.5 105t-64.5 90t-83.5 72t-100 49.5t-111.5 23z" />
    <glyph glyph-name="uniE624" unicode="&#xe624;" 
d="M1018 370q3 3 4.5 6.5t1.5 7.5q0 8 -6 14v-28zM1018 398l-357 373q-12 13 -29 12.5t-29 -13t-12 -29.5t12 -30l313 -327l-313 -327q-12 -13 -12 -30t12 -29.5t29 -13t29 12.5l357 373v28z" />
    <glyph glyph-name="uniE625" unicode="&#xe625;" 
d="M549 438zM480 438q0 29 20 49t49 20q14 0 27 -5.5t22.5 -14.5t15 -22t5.5 -27q0 -41 -36 -61q-17 -9 -34 -9q-29 0 -49 20.5t-20 49.5zM828 790h-557q-25 0 -46.5 -12.5t-34 -34t-12.5 -46.5v-69h-60q-14 0 -24.5 -10.5t-10.5 -25.5t10.5 -25t24.5 -10h60v-69h-60
q-14 0 -24.5 -10t-10.5 -25t10.5 -25t24.5 -10h60v-69h-60q-14 0 -24.5 -10.5t-10.5 -25t10.5 -25t24.5 -10.5h60v-68h-60q-14 0 -24.5 -10.5t-10.5 -25t10.5 -25t24.5 -10.5h60v-68q0 -39 27 -66t66 -27h557q38 0 65 27t27 66v626q0 39 -27 66t-65 27zM549 183q-7 0 -20 11
t-28.5 30t-31.5 45t-29 53.5t-21.5 58t-8.5 57.5q0 76 40.5 111.5t98.5 35.5q27 0 50.5 -7.5t44 -23.5t32.5 -46t12 -70t-17.5 -87.5t-41 -83.5t-46.5 -60t-34 -24z" />
    <glyph glyph-name="uniE626" unicode="&#xe626;" 
d="M512 896q-83 0 -161 -26t-141 -73.5t-110.5 -110.5t-73.5 -141t-26 -161t26 -161.5t73.5 -141t110.5 -110t141 -73.5t161 -26q104 0 199 40.5t163.5 109t109 163.5t40.5 199q0 83 -26 161t-73.5 141t-110.5 110.5t-141 73.5t-161 26zM512 -45q-116 0 -215 57.5
t-156.5 156.5t-57.5 215q0 87 34 166.5t91.5 137t137 91.5t166.5 34q116 0 215 -57.5t156.5 -156.5t57.5 -215q0 -165 -110 -287q-108 -119 -265 -139q-27 -3 -54 -3zM655 665l-91 -169q-37 -68 -45 -90h-2q-24 54 -136 259h-85l159 -275h-131v-60h154v-84h-154v-61h154
v-122h76v122h148v61h-148v84h148v60h-127l161 275h-81zM655 665z" />
    <glyph glyph-name="uniE627" unicode="&#xe627;" 
d="M879 139h-560q-12 0 -21.5 9t-11.5 22l-59 413l-33 192q-3 24 -17 44.5t-35.5 32t-46.5 11.5h-44q-9 0 -16.5 -4.5t-12 -12t-4.5 -16.5q0 -4 1.5 -8.5t3.5 -8t5 -6.5t6.5 -5t8 -3t8.5 -1h44q8 0 15.5 -4.5t12.5 -12t6 -15.5l33 -193l59 -412q2 -18 11 -34t22 -28t30 -19
t35 -7h560q9 0 16.5 4.5t12 12t4.5 16.5q0 14 -10 23.5t-23 9.5zM957 695q-27 30 -67 30h-698q-6 0 -12.5 -2.5t-10.5 -7t-7 -10.5t-3 -13q0 -13 10 -23t23 -10h698q2 0 4.5 -0.5t5 -1.5t4.5 -2.5t4 -3.5q11 -13 9 -33l-55 -276q-1 -13 -11.5 -22t-23.5 -9l-558 -55
q-13 -1 -22 -11t-8 -24q1 -8 5.5 -15t11.5 -11t16 -4h2l556 55q24 0 45.5 11.5t35 31t16.5 43.5l55 276q6 51 -25 87zM328 -99q28 0 47.5 19.5t19.5 47.5t-19.5 48t-47.5 20t-48 -20t-20 -48t20 -47.5t48 -19.5zM811 -99q18 0 33.5 9t24.5 24.5t9 33.5q0 28 -20 48t-47 20
q-14 0 -26.5 -5.5t-21.5 -14.5t-14.5 -21.5t-5.5 -26.5q0 -28 20 -47.5t48 -19.5z" />
    <glyph glyph-name="uniE628" unicode="&#xe628;" 
d="M743 233q31 4 54.5 -16t26.5 -50q2 -16 -2.5 -31t-13.5 -25.5t-21.5 -17.5t-26.5 -9q-11 -1 -21 0.5t-18.5 5.5t-16 10.5t-13 14t-9 16.5t-4.5 18.5t0 18.5t4 17t7.5 15t10.5 12.5t12.5 9.5t14.5 7t16 4zM202 508q17 2 31 -2.5t25 -14.5q10 -8 17 -20.5t9 -27.5
q4 -33 -15.5 -56.5t-49.5 -27.5q-31 -4 -54.5 16t-26.5 50q-2 15 2 29.5t12.5 25.5t21.5 18.5t28 9.5zM742 784q32 4 55.5 -16t26.5 -50q3 -21 -5.5 -39.5t-24 -30t-34.5 -13.5q-16 -2 -30.5 2.5t-25 13.5t-17.5 21.5t-9 27.5q-4 32 15.5 56t48.5 28zM88 441v-14v-2
q0 -1 0.5 -2.5t0.5 -4t0.5 -4.5t1 -4.5t0.5 -3.5q6 -28 23 -50q31 -39 80.5 -46t88.5 22q8 7 14 12.5t10 11.5l325 -168q0 -2 -1 -7.5t-2 -7.5q-1 -10 -1 -16q1 -44 27 -77q8 -9 17 -17t20 -14q12 -7 23.5 -10.5t19.5 -4t9 -1.5h15q1 0 2.5 0.5t3.5 0.5h5l4 2h6l4 2
q9 2 21 8q51 24 65 80l4 25v16v1v4l-2 6q0 2 -0.5 5t-0.5 5q-2 8 -6 18q-11 25 -30 43.5t-45 27.5q-23 7 -45.5 6t-43.5 -10.5t-37 -26.5q-9 -8 -11 -13l-11 5q-2 1 -5 3t-5 2l-60 32q-3 2 -6 3l-6 4l-6 2l-6 4q-3 1 -5.5 2.5t-5.5 3t-6 2.5l-9 4q-5 3 -11 7q-14 7 -32 16.5
t-37 19t-32 16.5q-6 3 -10.5 5.5t-9.5 5t-10.5 5t-10.5 5.5q-1 1 -11 6l-19 10q-9 4 -10 5q1 2 2 8t2 10q2 19 -2 39q0 2 -0.5 4.5t-1 4t-1 4t-1.5 3.5l81 41q4 2 11 5t10 5l61 30q4 2 22.5 11t41 20.5t45 22.5t37.5 19l16 7l3 -3q1 -1 2 -2.5t2 -2.5t2 -2.5t3 -2.5
q18 -20 44 -30q46 -18 92 2.5t65 67.5q4 10 6 19t2.5 14.5t0.5 6.5v14q0 1 -1 7v7q-6 39 -34.5 67.5t-67.5 35.5h-4q-3 0 -5 0.5t-3 0.5h-15h-3q-2 0 -4 -0.5t-4.5 -0.5t-3.5 -1q-15 -2 -28.5 -8.5t-24.5 -15.5t-21 -20q-4 -6 -8.5 -13.5t-8 -15.5t-5.5 -17
q-4 -14 -4.5 -27.5t1 -22.5t1.5 -11l-20 -10q-14 -7 -21 -10l-41 -21l-4 -2l-4 -2q-2 -1 -4.5 -2t-4.5 -2l-4 -2l-4 -2l-4 -2l-4 -2l-4 -2l-4 -2l-45 -22q-29 -15 -38 -19q-3 -2 -22 -11l-41 -21q-22 -11 -40.5 -20t-20.5 -9q-4 8 -25 22q-27 17 -58 19t-58.5 -11.5
t-46.5 -38.5q-2 -2 -3.5 -4t-3 -4.5t-2.5 -4.5t-2.5 -4.5t-2.5 -5.5l-2 -4l-2 -6q-1 -2 -1.5 -4.5t-1.5 -5t-1 -5.5q0 -1 -0.5 -3t-0.5 -4t-0.5 -4t-0.5 -3.5t-0.5 -3t-0.5 -2.5z" />
    <glyph glyph-name="uniE629" unicode="&#xe629;" horiz-adv-x="1025" 
d="M26 721h267q12 26 28 52h-295q-7 0 -13 -3.5t-9.5 -9.5t-3.5 -13q0 -10 7.5 -18t18.5 -8zM26 330h313q-19 27 -33 53h-280q-11 0 -18.5 -8t-7.5 -18q0 -8 3.5 -14t9.5 -9.5t13 -3.5zM860 -8h-834q-11 0 -18.5 -8t-7.5 -18.5t7.5 -18t18.5 -7.5h834q5 0 10 2t8.5 5.5
t5.5 8t2 10.5q0 20 -20 25q-3 1 -6 1zM1013 175l-155 155q49 44 77.5 105t28.5 130q0 51 -16 98.5t-44.5 86t-67 67.5t-86.5 45t-99 16q-129 0 -220.5 -92t-91.5 -221.5t91.5 -221t220.5 -91.5q89 0 164 47l161 -161q5 -5 12 -7t13.5 0t11.5 7q8 8 8 18.5t-8 18.5zM651 304
q-108 0 -184 76.5t-76 184.5q0 71 35 131t95 95t130 35q108 0 184.5 -76.5t76.5 -184.5q0 -21 -3.5 -42t-10 -40.5t-16 -37.5t-21 -34t-26 -30.5t-30.5 -26t-34 -21t-37 -16t-40 -10t-43 -3.5zM651 304z" />
    <glyph glyph-name="uniE62A" unicode="&#xe62a;" 
d="M704 762q-54 0 -105 -24t-87 -65q-23 27 -54 47.5t-66.5 31t-71.5 10.5q-99 0 -167 -67.5t-68 -166.5q0 -30 6 -59t21 -59.5t30.5 -56.5t44 -59t51.5 -58t64 -63t70.5 -65t80.5 -71l59 -56l60 56q7 6 21 19q50 46 74.5 69t65.5 62.5t61 61.5t48.5 55.5t42 57.5t28.5 53.5
t20.5 56.5t5.5 56q0 99 -67.5 166.5t-167.5 67.5zM517 96h-5l-4 5q-56 50 -84.5 75.5t-71 66.5t-64 64.5t-48.5 57t-39 57.5t-21 51.5t-9 54.5q0 64 42.5 106.5t106.5 42.5q48 0 91.5 -29t62.5 -73h81q10 29 33.5 52.5t54 36.5t61.5 13q64 0 107 -42.5t43 -106.5
q0 -26 -9 -53.5t-20.5 -51t-38 -57t-47 -56.5t-63 -64t-69 -66t-82.5 -76q-6 -5 -8 -8z" />
    <glyph glyph-name="uniE62B" unicode="&#xe62b;" 
d="M743 407l-416 415l-4 4q-2 2 -5 3t-5.5 1.5t-5.5 1t-5.5 0t-5.5 -1t-5.5 -1.5t-5 -3t-4.5 -4q-9 -9 -9 -22.5t9 -23.5l392 -392l-392 -392q-3 -3 -5 -7t-3 -8t-1 -8t1 -8t3 -8t5 -7q10 -10 23.5 -10t22.5 10l416 415q4 5 6.5 11t2.5 12q0 13 -9 23zM743 407z" />
    <glyph glyph-name="uniE62C" unicode="&#xe62c;" 
d="M608 116q-13 0 -22.5 9.5t-9.5 22.5v352q0 13 9.5 22.5t22.5 9.5t22.5 -9.5t9.5 -22.5v-352q0 -13 -9.5 -22.5t-22.5 -9.5zM416 116q-13 0 -22.5 9.5t-9.5 22.5v352q0 13 9.5 22.5t22.5 9.5t22.5 -9.5t9.5 -22.5v-352q0 -13 -9.5 -22.5t-22.5 -9.5zM928 660h-160v64
q0 40 -28 68t-67 28h-321q-40 0 -68 -28t-28 -68v-64h-160q-13 0 -22.5 -9.5t-9.5 -22.5t9.5 -22.5t22.5 -9.5h832q13 0 22.5 9.5t9.5 22.5t-9.5 22.5t-22.5 9.5zM320 724q0 13 9.5 22.5t22.5 9.5h321q8 0 15.5 -4t11.5 -11.5t4 -16.5v-64h-384v64zM736 -76h-448
q-40 0 -68 28t-28 68v480q0 14 9.5 23t22.5 9t22.5 -9t9.5 -23v-480q0 -13 9.5 -22.5t22.5 -9.5h448q13 0 22.5 9.5t9.5 22.5v479q0 24 23 31l9 1q13 0 22.5 -9.5t9.5 -22.5v-479q0 -40 -28 -68t-68 -28z" />
    <glyph glyph-name="uniE62D" unicode="&#xe62d;" 
d="M911 371.5q0 -108.5 -53.5 -201t-145.5 -146t-201 -53.5q-81 0 -155.5 32t-128 85.5t-85 127.5t-31.5 155q0 55 14.5 106.5t40 95.5t62.5 81t81 62.5t96 40t106 14.5q109 0 201 -53.5t145.5 -145.5t53.5 -200.5zM745 165q0 4 -0.5 8.5t-3 14t-7.5 18.5q-11 19 -31 32
q-24 15 -59 22h-1q-11 1 -34 7q-30 7 -34 14q-1 1 -1 2v3v6v11q2 15 8.5 30t12 22t15.5 19q9 10 12 15q7 10 11 22t5 17t1 8v1q0 5 -1 8q-1 2 -2 3l-2 4q-1 1 -1.5 2t-1.5 2h-1v1v1q2 13 3 23q1 29 -2 50l-3 10q-2 10 -6 18t-10 15l-2 2l-2 2q-3 3 -6 5t-8 5t-10 5
q-19 9 -42.5 15t-51.5 8q-12 1 -18.5 0.5t-17.5 -0.5h-1q-7 -1 -11 -2q-12 -3 -14 -13q-1 -7 2 -14v-1q-2 -3 -7 -8h-1q-23 -21 -25 -48q-6 -35 1 -71v-1v-1v-1q-9 -9 -9 -19v-1q0 -3 1 -8t5 -17t10 -22q4 -5 13 -15q10 -12 15.5 -19t12 -22t7.5 -30q1 -6 1 -11v-6v-3v-1
q-1 0 -1 -1q-5 -7 -34 -14q-23 -6 -34 -7h-1q-35 -6 -59 -22q-20 -12 -30 -31q-13 -22 -11 -42q0 -9 10 -11q-1 0 -2 -0.5t-2 -0.5h455v12z" />
    <glyph glyph-name="uniE62E" unicode="&#xe62e;" 
d="M940 -2l-148 159q93 112 93 258q0 109 -54 202.5t-147.5 147.5t-203.5 54q-41 0 -81 -8t-76 -23.5t-69 -37.5t-60 -49t-49 -60t-37.5 -69t-24 -76t-8.5 -81q0 -157 107 -273q103 -113 255 -130q22 -2 43 -2q88 0 168 36q12 6 16.5 18t-1 23.5t-17.5 16t-24 -0.5
q-67 -31 -142 -31q-35 0 -69 7t-64 20t-58 32t-51 42t-41.5 50.5t-31.5 58t-20 64.5t-7 69q0 69 27 132.5t73 109.5t109.5 73t132.5 27q93 0 172 -46t125 -124.5t46 -171.5q0 -138 -96 -237q-9 -10 -8.5 -23t9.5 -21q1 -1 2 -1.5t1 -1.5q1 0 1.5 -1.5t1.5 -1.5l161 -173
q4 -5 10 -7.5t12 -2.5q13 1 22 9q9 9 9.5 22t-8.5 22zM940 -2z" />
    <glyph glyph-name="uniE62F" unicode="&#xe62f;" 
d="M512 831q-91 0 -174 -35t-143 -95t-95 -143t-35 -174t35 -174t95 -143t143 -95t174 -35q73 0 141 22.5t123 64t96.5 96.5t64 123t22.5 141q0 91 -35 174t-95 143t-143 95t-174 35zM535 194q-1 -32 -21.5 -59.5t-61 -27.5t-61.5 27.5t-21 58.5v15q0 4 1 7.5t3.5 6.5t5.5 5
t6.5 3.5t7.5 1.5q6 0 11.5 -3.5t8.5 -9t3 -11.5v-14q0 -16 8 -25.5t14.5 -11.5t12.5 -2q15 0 24 9.5t10.5 16.5t1.5 13v150q0 10 7 17t16 7q7 0 12.5 -3t8.5 -8.5t3 -12.5v-150zM695 402q-57 4 -98 -50q-10 14 -24 26t-30 19t-31 7q-18 0 -35.5 -7t-31 -18.5t-23.5 -24.5
q-14 16 -25.5 25t-26.5 15t-38 9h-23q-14 0 -37.5 -11t-42.5 -31q5 34 16.5 66t29 59.5t40.5 51t50 40.5t58.5 27.5t64.5 13.5v33q0 20 23 20q5 0 9.5 -1.5t7.5 -3.5t5 -6t2 -9v-33q100 -8 172.5 -80.5t86.5 -176.5q-44 37 -99 40z" />
    <glyph glyph-name="uniE630" unicode="&#xe630;" 
d="M523 -85q-96 0 -183.5 35t-150.5 94.5t-100.5 141.5t-37.5 172q0 127 64.5 235t174.5 169q11 6 23.5 2t19.5 -15q4 -8 3.5 -16t-5 -15.5t-11.5 -11.5q-96 -53 -151.5 -146t-55.5 -202q1 -102 56 -189.5t149.5 -138.5t204.5 -51q107 0 194.5 49t137.5 136t50 194
q0 113 -57.5 207t-156.5 145q-11 7 -15 19.5t2 23.5q7 11 19.5 15t23.5 -2q23 -12 44.5 -26t40.5 -30t36.5 -34t32.5 -37.5t28 -41t24 -44t19 -46t13.5 -48t8.5 -50t3 -51.5q-1 -125 -60 -226.5t-161 -159t-227 -57.5zM512 373q-6 0 -11.5 1.5t-10 3.5t-8.5 5t-7 6.5
t-4.5 7.5t-1.5 8v406q0 13 13 22.5t30 9.5t30 -9.5t13 -22.5v-406q0 -13 -13 -22.5t-30 -9.5z" />
    <glyph glyph-name="uniE631" unicode="&#xe631;" horiz-adv-x="1025" 
d="M1013 -61l-202 199q112 129 112 299q0 93 -36.5 178t-98.5 146.5t-147.5 98t-179 36.5t-179 -36.5t-147.5 -98t-98.5 -146.5t-36.5 -178q0 -75 23.5 -145t66 -126.5t99 -99t127 -65.5t145.5 -23q101 0 194 43l1 1l4 2t2 2q17 17 17 31q0 16 -10 26.5t-26 9.5l-35 -15
q-71 -29 -147 -29q-106 0 -196 52t-142 141.5t-52 194.5q0 79 31 151t83 124t124.5 82.5t151.5 30.5q107 0 196.5 -52t142 -141t52.5 -195q0 -145 -96 -255q-6 1 -11 0.5t-10 -3t-9 -6.5q-12 -12 -10 -30q-3 -3 47 -57l201 -197q10 -10 24.5 -10t25 10.5t10.5 25t-11 24.5z
" />
    <glyph glyph-name="uniE632" unicode="&#xe632;" 
d="M871 865h-64q-14 0 -26 -8t-12 -21q0 -8 6 -16.5t14.5 -13.5t17.5 -5h64q29 0 46.5 -18t17.5 -46v-736q0 -19 -8 -33.5t-22.5 -22.5t-33.5 -8h-688q-31 0 -56 18t-25 46v736q0 14 5 26t13 20t20 13t26 5h81q8 0 13.5 5t8 13t2.5 17q0 29 -24 29h-81q-33 0 -57.5 -10
t-40 -27.5t-23 -40.5t-7.5 -52v-728q0 -60 35.5 -97t99.5 -37h692q65 0 99.5 34t34.5 100v728q0 57 -33.5 93.5t-94.5 36.5v0zM247 576q0 -8 4.5 -16t12 -12t15.5 -4h481q13 0 22.5 9.5t9.5 22.5q0 9 -4.5 16.5t-12 12t-15.5 4.5h-481q-13 0 -22.5 -9.5t-9.5 -23.5v0z
M758 432h-479q-13 0 -22.5 -9.5t-9.5 -23t9.5 -23t22.5 -9.5h481q13 0 22.5 9.5t9.5 22.5q0 7 -3 13.5t-7.5 10.5t-10.5 6.5t-13 2.5v0zM758 240h-479q-13 0 -22.5 -9.5t-9.5 -23t9.5 -23t22.5 -9.5h481q13 0 22.5 9.5t9.5 22.5q0 7 -3 13.5t-7.5 10.5t-10.5 6.5t-13 2.5v0z
M409 784h223q19 0 33 17t14 39q0 15 -6.5 28t-17.5 20.5t-25 7.5h-221q-21 0 -35 -16.5t-14 -39.5q0 -15 6.5 -27.5t17.5 -20.5t25 -8v0z" />
    <glyph glyph-name="uniE633" unicode="&#xe633;" 
d="M353 66q-27 0 -45.5 -18.5t-18.5 -45.5q0 -17 8.5 -31.5t23 -23t32 -8.5t32 8.5t23 23t8.5 31.5q0 27 -18.5 45.5t-44.5 18.5v0zM799 66q-26 0 -45 -18.5t-19 -45t19 -45t45 -18.5t45 18.5t19 44.5q0 11 -3.5 20.5t-9 17.5t-13.5 14t-18 9t-20 3v0zM862 98h-518
q-34 0 -60.5 24t-31.5 59l-54 381l-31 177q0 8 -5 14.5t-11.5 10.5t-12.5 4h-41q-13 0 -22.5 9t-9.5 22.5t9.5 22.5t22.5 9h41q34 0 61 -23.5t32 -58.5l30 -178l55 -382q1 -11 9.5 -19t18.5 -8h518q5 0 10 -1.5t9 -4.5t7 -7t4.5 -9t1.5 -10q0 -13 -9 -22.5t-23 -9.5z
M384 226q-8 0 -15 3.5t-11.5 10.5t-5.5 15q-1 13 8 23t22 11l432 32q8 0 15 4t11.5 10t4.5 13l51 287v7q0 3 -0.5 6.5t-1.5 6t-2.5 5.5t-3.5 5q-7 7 -16 7h-552q-9 0 -16 4.5t-11.5 11.5t-4.5 16q0 6 2.5 12t7 10.5t10.5 7t12 2.5h552q38 0 63 -29q30 -33 24 -81l-50 -288
q-5 -33 -31.5 -57t-60.5 -24l-431 -31h-2zM384 226z" />
    <glyph glyph-name="uniE634" unicode="&#xe634;" 
d="M512 896q-83 0 -161 -26t-141 -73.5t-110.5 -110.5t-73.5 -141t-26 -161t26 -161.5t73.5 -141t110.5 -110t141 -73.5t161 -26q104 0 199 40.5t163.5 109t109 163.5t40.5 199q0 83 -26 161t-73.5 141t-110.5 110.5t-141 73.5t-161 26zM512 -45q-116 0 -215 57.5
t-156.5 156.5t-57.5 215q0 87 34 166.5t91.5 137t137 91.5t166.5 34q116 0 215 -57.5t156.5 -156.5t57.5 -215q0 -165 -110 -287q-108 -119 -265 -139q-27 -3 -54 -3zM655 665l-91 -169q-37 -68 -45 -90h-2q-24 54 -136 259h-85l159 -275h-131v-60h154v-84h-154v-61h154
v-122h76v122h148v61h-148v84h148v60h-127l161 275h-81zM655 665z" />
    <glyph glyph-name="uniE635" unicode="&#xe635;" 
d="M931 -128h-290q-37 0 -65 38t-28 79v265q0 39 27 66.5t66 27.5h290q38 0 65.5 -27.5t27.5 -66.5v-288q0 -26 -12.5 -47.5t-34 -34t-46.5 -12.5zM976 251q0 13 -6.5 24t-17.5 17.5t-24 6.5h-285q-20 0 -34 -14t-14 -34v-286q0 -7 2.5 -14.5t7 -13.5t10.5 -10t13 -6.5
t15 -2.5h285q13 0 24 6t17.5 17t6.5 24v286zM931 420h-290q-37 0 -65 38t-28 79v265q0 19 7 36t19.5 29.5t30 20t36.5 7.5h290q25 0 46.5 -12.5t34 -34t12.5 -46.5v-289q0 -8 -1.5 -16.5t-4.5 -16t-7 -14.5t-9 -13t-11 -11t-13 -9.5t-14.5 -7t-16 -4t-16.5 -1.5zM976 799
q0 19 -14 33t-34 14h-285q-13 0 -24 -6.5t-17.5 -17.5t-6.5 -23v-286q0 -6 1.5 -11t3.5 -10t5.5 -9t7.5 -7.5t9 -5.5t10 -3.5t11 -1.5h285q20 0 34 14t14 34v286zM383 -128h-290q-37 0 -65 38t-28 79v265q0 39 27.5 66.5t65.5 27.5h290q13 0 25 -3.5t22 -9.5t19 -14.5
t15 -19t9 -22.5t3 -25v-288q0 -39 -27 -66.5t-66 -27.5zM429 251q0 4 -1 8.5t-2.5 8t-3.5 7.5t-4.5 7t-6 5.5t-7 4.5t-7 3.5t-8 2.5t-8.5 1h-286q-13 0 -24 -6.5t-17 -17.5t-6 -24v-286q0 -6 1.5 -12t4.5 -11.5t7.5 -10t9.5 -7.5t11.5 -4.5t12.5 -1.5h286q20 0 34 14t14 33
v286zM383 420h-290q-37 0 -65 38t-28 79v265q0 39 27.5 66t65.5 27h290q25 0 46.5 -12.5t34 -34t12.5 -46.5v-289q0 -8 -1.5 -16.5t-4 -16t-6.5 -14.5t-9.5 -13t-11.5 -11t-13 -9.5t-14.5 -7t-15.5 -4t-17 -1.5zM429 799q0 19 -14 33t-34 14h-286q-8 0 -15 -2.5t-13 -6.5
t-10.5 -10t-6.5 -13.5t-2 -14.5v-286q0 -20 14 -34t33 -14h286q13 0 24 6.5t17.5 17.5t6.5 24v286z" />
    <glyph glyph-name="uniE636" unicode="&#xe636;" 
d="M791 414l-384 384q-12 13 -29 13t-30 -13t-13 -30t13 -30l352 -354l-352 -354q-13 -13 -13 -30t13 -30t30 -13t29 13l384 384q13 13 13 30t-13 30z" />
    <glyph glyph-name="uniE637" unicode="&#xe637;" 
d="M390 426h-239q-34 0 -58 24t-24 58v239q0 22 11 41t29.5 30t41.5 11h239q34 0 58 -24t24 -58v-239q0 -34 -24 -58t-58 -24zM151 788q-5 0 -9 -1t-7.5 -2.5t-7 -4t-6 -5t-5 -6t-4 -7t-2 -7.5t-0.5 -8v-239q0 -17 12 -29t29 -12h239q17 0 29 12t12 29v239q0 17 -12 29
t-29 12h-239zM875 426h-239q-14 0 -26.5 4t-22.5 11.5t-17.5 17.5t-11.5 22.5t-4 26.5v239q0 34 24 58t58 24h239q16 0 31.5 -6.5t26.5 -17.5t17.5 -26.5t6.5 -31.5v-239q0 -34 -24 -58t-58 -24zM636 788q-17 0 -29 -12t-12 -29v-239q0 -17 12 -29t29 -12h239q17 0 29 12
t12 29v239q0 17 -12 29t-29 12h-239zM390 -58h-239q-23 0 -41.5 11t-29.5 29.5t-11 41.5v239q0 34 24 58t58 24h239q34 0 58 -24t24 -58v-239q0 -34 -24 -58t-58 -24zM151 304q-17 0 -29 -12t-12 -29v-239q0 -17 12 -29t29 -12h239q8 0 15.5 3t13 8.5t9 13t3.5 16.5v239
q0 8 -3.5 15.5t-9 13t-13 9t-15.5 3.5h-239zM875 -58h-239q-23 0 -41.5 11t-29.5 29.5t-11 41.5v239q0 22 11 41t29.5 30t41.5 11h239q34 0 58 -24t24 -58v-239q0 -34 -24 -58t-58 -24zM636 304q-17 0 -29 -12t-12 -29v-239q0 -17 12 -29t29 -12h239q17 0 29 12t12 29v239
q0 17 -12 29t-29 12h-239z" />
    <glyph glyph-name="uniE638" unicode="&#xe638;" horiz-adv-x="1309" 
d="M1036 662h47q2 0 7.5 -3t7.5 -5l206 -259q4 -5 4 -12v-317q0 -12 -4.5 -23t-12.5 -19q-17 -17 -42 -17h-71q-7 -55 -47 -93t-95 -42v38q44 4 74.5 37.5t30.5 78t-30.5 78t-74.5 37.5v38q54 -4 94.5 -42t47.5 -92h71q3 0 6 0.5t5.5 2t3.5 3.5q3 3 5 7t2 8v230h-235v37h235
v44l-105 132h-130v37h99l-61 78h-38v38v0zM425 860q18 -10 34 -22t30 -26t26 -30h210q31 0 54 -22q22 -22 22 -53v-45h235v-38h-235v-579h72q7 57 51 95.5t101 38.5h11v-38h-11q-47 0 -81 -34t-34 -81.5t34 -81.5t81 -34h11v-38h-1h-10q-57 0 -101 39t-51 96h-383
q-4 -33 -21 -61t-44 -46v50q29 33 29 75.5t-29 75.5v50q14 -9 24.5 -20.5t19 -25t14 -29t7.5 -31.5h273v661q0 16 -11 27q-5 6 -12 9t-15 3h-186q34 -64 34 -136q0 -118 -84 -202q-14 -15 -30 -27t-33 -22v45q20 14 37 30q72 73 72 176t-73 176q-16 17 -37 31v44v0z
M1036 546h-45q-25 0 -42.5 -18t-17.5 -43v-129q0 -25 17.5 -42.5t42.5 -17.5h45v38h-45q-6 0 -11.5 3t-8.5 8t-3 11v129q0 10 7 17t16 7h45v37v0zM287 896q74 0 138 -36v-44q-30 20 -65 31t-73 11h-8q-4 0 -8 -0.5t-7.5 -0.5t-7.5 -0.5t-7.5 -1.5t-7.5 -1v38q6 1 11 2h12
q5 1 11 1.5t12 0.5v0zM425 -100q-19 -14 -41 -21t-46 -7q-55 0 -97 35v56q16 -25 41.5 -39t55.5 -14q53 0 87 40v-50v0zM425 403v-44q-64 -36 -138 -36q-23 0 -46 3v39q22 -5 46 -5q11 0 21.5 1t21 3t21 4.5t20 6t19 8t18.5 9.5t17 11v0zM425 151v-50q-10 12 -23.5 21
t-30 14t-33.5 5q-30 0 -55.5 -14t-41.5 -39v56q42 35 97 35q24 0 46 -7t41 -21v0zM241 -93q-48 39 -55 100h-60q-31 0 -53.5 22.5t-22.5 53.5v365q-24 35 -37 76t-13 85q0 119 84 203q66 66 157 80v-38q-75 -14 -130 -69q-73 -73 -73 -176t73 -176q55 -54 130 -68v-39
q-88 14 -153 77v-320q0 -10 5 -19t14 -14t19 -5h60q7 60 55 99v-56q-19 -28 -19 -62q0 -35 19 -64v-55v0zM268 486q-3 -3 -7 -5t-8 -2.5t-7.5 0.5t-7.5 3t-6 5l-88 92q-4 4 -5.5 9t-1.5 9.5t2 9.5t6 8q3 3 6.5 5t7.5 2.5t8 -0.5t7.5 -3t6.5 -5l88 -92q7 -8 6.5 -18.5
t-7.5 -17.5v0zM278 483q-3 -2 -7 -4t-7.5 -2.5t-7.5 0t-7.5 2.5t-6.5 5l-4 4q-7 8 -7 18.5t8 17.5l163 155q8 7 18.5 6.5t17.5 -7.5l4 -4q3 -3 4.5 -7t2 -7.5t0 -7.5t-2.5 -7.5t-5 -6.5zM278 483z" />
    <glyph glyph-name="uniE639" unicode="&#xe639;" 
d="M512 831q-61 0 -119 -16t-107 -44.5t-90.5 -70t-70 -90.5t-44.5 -107t-16 -119q0 -91 35 -174t95 -143t143 -95t174 -35t174 35t143 95t95 143t35 174t-35 174t-95 143t-143 95t-174 35zM512 -37q-114 0 -211.5 56t-153.5 153.5t-56 211.5t56 211.5t153.5 153.5t211.5 56
q86 0 164 -33t134.5 -89.5t89.5 -134.5t33 -164q0 -163 -109 -283q-106 -117 -263 -136q-25 -2 -49 -2zM694 339q5 0 9 -1t7.5 -3t6 -5t4 -6.5t1.5 -7.5q0 -2 -0.5 -4t-1.5 -4t-2.5 -4t-3.5 -3t-4.5 -2.5t-4.5 -2.5t-5 -1h-6h-157v-129q0 -10 -8 -17.5t-20 -7.5
q-6 0 -11.5 2t-9.5 6t-6 8t-2 9v129h-151q-5 0 -9 1t-7.5 3t-6 5t-3.5 6.5t-1 6.5q0 9 8 15.5t19 6.5h151v67h-151q-12 0 -19.5 6t-7.5 17q0 8 8 14t19 6h130l-105 141q-4 8 -1 19t12 15q11 5 20.5 2t15.5 -10l109 -147l111 136q7 10 16 14t25 -1q8 -6 10 -14.5t-1 -14.5
l-2 -6l-109 -134h128q4 0 7.5 -0.5t6.5 -2t5.5 -3.5t4.5 -4.5t3 -5.5t1 -6q0 -6 -4 -11t-10.5 -7.5t-13.5 -2.5h-151v-67h157v0z" />
    <glyph glyph-name="uniE63A" unicode="&#xe63a;" 
d="M984 472q-5 0 -9.5 -2.5t-8 -6t-5.5 -8t-2 -9.5q0 -19 -20 -19q-3 0 -7 -1.5t-7 -4t-5.5 -5.5t-4 -7t-1.5 -7q0 -20 32 -20q28 0 46 20.5t18 50.5q0 9 -8 14t-18 5zM238 421q-34 0 -47 -30q-4 -10 -4 -21v-153q0 -34 29 -47q11 -4 22 -5h127q21 0 36 14.5t15 37.5v159
q0 20 -14 35.5t-37 15.5h-127v-6zM901 363q-9 0 -17 -8t-8 -17v-396q0 -19 -19 -19h-702q-6 0 -12.5 5.5t-6.5 13.5v485h-64q-6 0 -12.5 8.5t-6.5 17.5v38q0 5 7 12t12 7h38l357 319q13 9 29 12.5t32 0t29 -12.5l185 -166q21 -11 32 0q10 21 0 32l-192 172q-22 19 -49 25.5
t-54.5 0t-49.5 -25.5l-338 -306h-19q-28 0 -46 -20.5t-18 -49.5v-38q0 -14 5.5 -27.5t14.5 -22.5t20.5 -15t23.5 -6h13v-440q0 -9 2.5 -18t6.5 -17t10.5 -14.5t13.5 -11t14.5 -7t15.5 -2.5h709q28 0 45.5 20.5t17.5 49.5v396q7 14 -9 23q-5 2 -10 2zM633 159l370 370
q19 19 19 44t-19 39l-64 64q-19 19 -43.5 19t-38.5 -19l-377 -370zM863 657q5 4 11.5 6.5t13.5 2.5t14 -2.5t12 -6.5l64 -64q9 -10 9 -26t-9 -25l-345 -351l-121 115zM429 134v-8q0 -4 2 -9.5t4 -8.5q5 -4 7 -6t6 -4.5t7 -2.5h6l153 32l-153 153zM563 146l-108 -19v0l19 109
zM576 293l6 -6h2q1 0 3 1.5t2 4.5l306 300v19q-10 10 -19 0l-300 -300v-19z" />
    <glyph glyph-name="uniE63B" unicode="&#xe63b;" 
d="M238 725q-24 0 -44 -11.5t-31.5 -31.5t-11.5 -44v-525q0 -24 11.5 -44t31.5 -31.5t44 -11.5h526q36 0 61.5 25.5t25.5 61.5v345l90 87v-464q0 -60 -44 -102.5t-104 -42.5h-587q-60 0 -102.5 42.5t-42.5 102.5v580q0 61 43 107.5t102 46.5h464l-86 -90h-346zM560 299
l-195 -56l55 194zM579 318l-139 138l306 304l139 -138zM948 685l-42 -42l-139 139l42 41q7 8 17 10.5t20 0.5t17 -9l87 -87q11 -10 10.5 -26t-12.5 -27z" />
    <glyph glyph-name="uniE63C" unicode="&#xe63c;" 
d="M600 373h8v1q17 6 17 24q0 11 -7 18.5t-18 7.5h-98v21l103 101l4 5q3 6 4 12q0 5 -1.5 10t-5.5 8q-6 8 -17 8.5t-19 -6.5l-93 -92l-99 97q-2 2 -5 3.5t-6.5 2t-6.5 0.5t-6 -1t-6 -2.5t-5 -4.5q-13 -14 -3 -30v-1l111 -109v-22h-98h-8v-2q-17 -5 -17 -24q0 -5 2 -10
t6 -8.5t9 -5.5v-1h106v-39h-106v-1q-17 -6 -17 -24.5t17 -24.5v-1h106v-97v-7h2q2 -8 8.5 -13t15 -5t15 5t9.5 13h1v104h98h8v2q17 5 17 24q0 10 -7 17.5t-18 7.5h-98v39h98zM955 421q-5 5 -12 7t-14 0.5t-12 -7.5l-25 -24q-3 110 -59.5 202.5t-151 146.5t-204.5 54
q-113 0 -209 -55.5t-151.5 -151.5t-55.5 -209q0 -85 33 -162t88.5 -132.5t132.5 -88.5t162 -33q93 0 175.5 39.5t141.5 109.5l8 8v1q1 0 1 1q3 6 3 12q0 8 -4 14.5t-10.5 10t-14.5 3.5q-5 0 -9.5 -1.5t-8 -4.5t-5.5 -7q-51 -61 -123 -95.5t-154 -34.5q-98 0 -181 48
t-131.5 131t-48.5 181t48.5 181t131.5 131t181 48q49 0 95.5 -13t86 -36t73 -56.5t56.5 -73t36 -86t13 -95.5v-2v-2l-41 41q-4 4 -9 6t-10 2t-10.5 -2t-9.5 -6q-5 -5 -7 -12t0 -14t7 -12l75 -75q8 -8 20 -8q5 -1 6 -1q12 0 19 7l78 77q8 8 8 19t-8 19z" />
    <glyph glyph-name="uniE63D" unicode="&#xe63d;" 
d="M488 113v118h-151v50h151v52h-151v54h124l-147 257h72l105 -187q18 -32 28 -55q8 19 30 59l99 183h78l-147 -257h123v-54h-149v-52h149v-50h-149v-118h-65zM935 328q-32 -145 -149 -240t-268 -95q-87 0 -166.5 34t-136.5 91t-91 136.5t-34 166.5q0 116 57.5 214.5
t155.5 155.5t215 57q63 0 123 -18t110 -51t90 -79t65 -101l-156 90l-24 -42l254 -146v293h-48v-141q-62 111 -172.5 177t-241.5 66q-179 0 -313 -117q-129 -112 -156 -280q-7 -39 -7 -78q0 -97 37.5 -185t101.5 -151.5t152 -101.5t185 -38q111 0 209.5 48.5t165 133.5
t89.5 191z" />
    <glyph glyph-name="uniE63E" unicode="&#xe63e;" 
d="M345 335q-1 -2 -1 -3l-48 -176q-2 -8 0 -16t7 -13q9 -9 22 -9q4 0 8 1l175 48v0q3 0 6 2l468 468q7 7 11.5 15.5t7 18t2.5 19.5q0 37 -27 64l-44 45q-27 27 -64 27q-5 0 -10 -0.5t-10 -2t-9.5 -3t-9 -4t-8 -5.5t-7.5 -7l-468 -468q0 -1 -1 -1zM936 683l-47 -47l-75 77
l46 46q3 3 8.5 4t11 -0.5t10.5 -6.5l44 -44q7 -7 7 -17q0 -7 -5 -12zM429 327l337 338l76 -77l-337 -337l-76 76v0zM367 190l25 90l65 -65l-90 -25v0zM966 497q-3 0 -6 -1h-4q-3 -1 -5 -2l-4 -4l-4 -2q-2 -2 -3.5 -4t-2.5 -4.5t-2 -4.5t-1.5 -5t-0.5 -5v-437q0 -8 -3 -15.5
t-8.5 -13t-13.5 -9t-16 -3.5h-738q-18 0 -30 12t-12 29v713q0 5 1.5 10.5t4 10t6.5 8.5t8.5 6.5t10 4t11.5 1.5h475q13 0 22.5 9.5t9.5 22.5q0 5 -1 9t-3 7.5t-5 6.5t-6.5 5t-8 3.5t-8.5 1.5h-480q-42 0 -71.5 -30t-29.5 -71v-722q0 -28 13.5 -51.5t36.5 -37t51 -13.5h748
q27 0 50.5 13.5t37 37t13.5 51.5v441q0 13 -9.5 22.5t-22.5 9.5z" />
    <glyph glyph-name="uniE63F" unicode="&#xe63f;" horiz-adv-x="1025" 
d="M1024 549v5h-57v-6v-57v-57v-366q0 -39 -21 -72q-44 -67 -124 -67h-365h-260q-24 0 -47 9q-28 10 -49 30t-32.5 47t-11.5 58v356v266q0 24 6.5 45.5t20.5 40.5q44 58 118 58h474h7v2v5v16v18v16h-552q-21 -4 -22 -4q-43 -10 -73 -44t-35 -79l-1 -4v-762q3 -20 4 -21
q7 -32 27.5 -57t49.5 -39t63 -14h1h1h1h1h1h1h1h1h1h1h1h1h1h1h1h1h1h1h1h1h1h1h1h1h1h1h1h1h1h1h1h1h1h1h1h1h1h1h1h1h1h1h1h1h1h1h1h1h1h1h1h1h1h1h1h1h1h1h1h1h1h1h1h1h1h1h1h1h1h1h1h1h1h1h1h1h1h1h1h1h1h1h1h1h1h1h1h1h1h1h1h1h1h1h1h1h1h1h1h1h1h1h1h1h1h1h1h1h1h1h1
h1h1h1h1h1h1h1h1h1h1h1h1h1h1h1h1h1h1h1h1h1h1h1h1h1h1h1h1h1h1h1h1h1h1h1h1h1h1h1h1h1h1h1h1h1h1h1h1h1h1h1h1h1h1h1h1h1h1h1h1h1h1h1h1h1h1h1h1h1h1h1h1h1h1h1h1h1h1h1h1h1h1h1h1h1h1h1h1h1h1h1h1h1h1h1h1h1h1h1h1h1h1h1h1h1h1h1h1h1h1h1h1h1h1h1h1h1h1h1h1h1h1h1h1h1h1h1
h1h1h1h1h1h1h1h1h1h1h1h1h1h1h1h1h1h1h1h1h1h1h1h1h1h1h1h1h1h1h1h1h1h1h1h1h1h1h1h1h1h1h1h1h1h1h1h1h1h1h1h1h1h1h1h1h1h1h1h1h1h1h1h1h1h1h1h1h1h1h1h1h1h1h1h1h1h1h1h1h1h1h1h1h1h1h1h1h1h1h1h1h1h1h1h1h1h1h1h1h1h1h1h1h1h1h1h1h1h1h1h1h1h1h1h1h1h1h1h1h1h1h1h1h1h1h1
h1h1h1h1h1h1h1h1h1h1h1h1h1h1h1h1h1h1h1h1h1h1h1h1h1h1h1h1h1h1h1h1h1h1h1h1h1h1h1h1h1h1h1h1h1h1h1h1h1h1h1h1h1h1h1h1h1h1h1h1h1h1h1h1h1h1h1h1h1h1h1h1h1h1h1h1h1h1h1h1h1h1h1h1h1h1h1h1h1h1h1h1h1h1h1h1h1h1h1h1h1h1h1h1h1h1h1h1h1h1h1h1h1h1h1h1h1h1h1h1h1h1h1h1h1h1h1
h1h1h1h1h1h1h1h1h1h1h1h1h1h1h1h1h1h1h1h1h1h1h1h1h1h1h1h1h1h1h1h1h1h1h1h1h1h1h1h1h1h1h1h1h1h1h1h1h1h1h1h1h1h1h1h1h1h1h1h1h1h1h1h1h1h1h1h1h1h1h1h1h1h1h1h1h1h1h1h1h1h1h1h1h1h1h1h1h1h1h1h1h1h1h1h1h1h1h1h1h1h1h1h1h1h1h1h1h1h1h1h1h1h1h1h1h1h1h1h1h1h1h1h1h1h1h1
h1h1h1h1h1h1h1h1h1h1h1h1h1h1h1h1h1h1h1h1h1h1h1h1h1h1h1h1h1h1h1h1h1h1h1h1h1h1h1h1h1h1h1h1h1h1h1h1h1h1h1h1h1h1h1h1h1h1h1h1h1h1h1h1h1h1h1h1h1h1h1h1h1h1h1h1h1h1h1h1h1h1h1h1h1h1h1h1h1h1h1h1h1h1h1h1h1h1h1h1h1h1h1h1h1h1h1h1h1h1h1h1h1h1h1h2q12 0 21 1q53 8 88 48
t35 94v534zM549 302l181 180l180 181q-39 40 -119 119l-361 -361q19 -18 42 -41t36 -36.5t41 -41.5zM531 444q206 206 238 237q10 11 22 10q18 0 25 -15q8 -16 -3 -31l-4 -4q-23 -23 -58.5 -59t-61 -61t-58 -57.5t-59.5 -60.5q-13 -12 -28 -9q-16 3 -21.5 18t4.5 27q2 2 4 5
zM997 749q6 7 10.5 14.5t6.5 16t3 17.5q0 9 -1 18t-3.5 17t-7 15.5t-10 13.5t-12.5 11.5t-15 8.5q-17 8 -34.5 8.5t-33.5 -6t-29 -19.5l-37 -37q0 -1 -2 -2v-1l38 -38l44 -44l37 -37q43 40 46 44zM388 381l-8 -10q-4 -5 -8 -12h-1l-1 1h-2q-10 -74 -20 -139q21 2 44.5 5.5
t52 7.5t43.5 6q-1 3 -1 4q15 10 22 16q-17 17 -38.5 39t-43.5 43.5t-39 38.5z" />
    <glyph glyph-name="uniE640" unicode="&#xe640;" 
d="M87 640h234q10 32 24 64h-258q-10 0 -16.5 -9.5t-6.5 -22.5q0 -9 3 -16t8.5 -11.5t11.5 -4.5zM89 316h293q-9 16 -17 32t-14 32h-262q-10 0 -17 -9.5t-7 -22.5t7 -22.5t17 -9.5zM865 64h-777q-10 0 -17 -9t-7 -22.5t7 -22.5t17 -9h777q10 0 17 9t7 22q0 6 -1 10.5
t-3.5 8.5t-5.5 7t-6.5 4.5t-7.5 1.5zM954 154l-135 138q91 78 93 201q1 114 -78.5 195t-192.5 82q-56 1 -107 -20t-88 -57.5t-59.5 -87t-22.5 -106.5q-1 -113 78 -194t193 -83q43 0 73 6t60 24l140 -142q7 -7 20 -4t20 10t9.5 19t-3.5 19zM635 287q-86 1 -146.5 63
t-59.5 149q0 42 17 80.5t45.5 66t67 44t81.5 15.5q86 -1 147 -62.5t60 -148.5q-1 -57 -29.5 -104.5t-77 -75t-105.5 -27.5zM635 293z" />
    <glyph glyph-name="uniE641" unicode="&#xe641;" horiz-adv-x="1000" 
d="M362 106v499l299 -250zM362 106z" />
    <glyph glyph-name="uniE642" unicode="&#xe642;" 
d="M549 858v1q0 16 -11 26.5t-26 10.5q-7 0 -14 -3t-12 -8t-8 -11.5t-3 -14.5v-1q-98 -7 -186 -49.5t-151.5 -109t-100.5 -157.5t-37 -190q0 -24 1 -41q3 30 19 57t42.5 44t56.5 17q49 0 84 -34.5t35 -83.5q0 24 9.5 46t25.5 38t38 25t46 9q46 0 81.5 -31t36.5 -73v-307
q0 -30 -21 -51.5t-52 -21.5q-14 0 -27 6t-22.5 15.5t-15.5 23t-6 28.5t-10.5 26t-25.5 11t-26 -11t-11 -26q0 -60 42.5 -103t101.5 -43q62 0 104 43q43 43 43 103v310q10 101 119 101q49 0 83.5 -34.5t35.5 -83.5q0 12 2.5 23.5t7 22t11 20.5t14.5 17.5t17.5 14t20 11
t22.5 7t24 2.5q43 0 76.5 -36.5t40.5 -81.5q1 13 1 27q0 133 -63 249t-172.5 188.5t-239.5 82.5zM238 311v-3v3v0zM787 311v-3v3v0z" />
    <glyph glyph-name="uniE643" unicode="&#xe643;" 
d="M704 762q-54 0 -105 -24t-87 -65q-23 27 -54 47.5t-66.5 31t-71.5 10.5q-99 0 -167 -67.5t-68 -166.5q0 -30 6 -59t21 -59.5t30.5 -56.5t44 -59t51.5 -58t64 -63t70.5 -65t80.5 -71l59 -56l60 56q7 6 21 19q50 46 74.5 69t65.5 62.5t61 61.5t48.5 55.5t42 57.5t28.5 53.5
t20.5 56.5t5.5 56q0 99 -67.5 166.5t-167.5 67.5zM517 96h-5l-4 5q-56 50 -84.5 75.5t-71 66.5t-64 64.5t-48.5 57t-39 57.5t-21 51.5t-9 54.5q0 64 42.5 106.5t106.5 42.5q48 0 91.5 -29t62.5 -73h81q10 29 33.5 52.5t54 36.5t61.5 13q64 0 107 -42.5t43 -106.5
q0 -26 -9 -53.5t-20.5 -51t-38 -57t-47 -56.5t-63 -64t-69 -66t-82.5 -76q-6 -5 -8 -8z" />
    <glyph glyph-name="uniE644" unicode="&#xe644;" 
d="M754 384l-448 448l-35 -36l412 -412l-413 -412l35 -36l413 413h1z" />
    <glyph glyph-name="uniE645" unicode="&#xe645;" 
d="M511 384q28 0 46.5 14t18.5 33v353q0 19 -19 34q-9 7 -20.5 10.5t-25.5 3.5q-26 0 -44 -14q-10 -7 -14.5 -15.5t-4.5 -18.5v-353q0 -2 0.5 -5t1 -5.5t2 -5t3 -4.5t3 -4.5t4 -4.5t5.5 -4q9 -7 20 -10.5t24 -3.5zM949 493.5q-13 52.5 -38 100t-60.5 88t-80.5 73.5
q-29 -1 -45.5 -11.5t-20 -25t-1.5 -28.5t8 -26q70 -48 111 -124.5t41 -164.5q0 -95 -47 -176t-128 -128t-176 -47t-176 47t-128 128t-47 176q0 85 38 159t104 123q3 7 5 16t2 19.5t-4 20t-10.5 17.5t-20 13t-31.5 5q-42 -33 -76.5 -73t-57.5 -86.5t-35 -97.5
q-7 -25 -10 -51.5t-3 -52.5q0 -94 35 -176t96.5 -142.5t143.5 -96.5t175 -36t175 36q41 18 76.5 42t66.5 54q61 61 96.5 143t35.5 176q0 54 -13 106.5z" />
    <glyph glyph-name="uniE646" unicode="&#xe646;" 
d="M768 256l-256 321l-257 -321h513z" />
    <glyph glyph-name="uniE647" unicode="&#xe647;" 
d="M977 348q-2 4 -5.5 9t-15 18.5t-23 24t-27.5 19t-31 8.5q-11 0 -23 -4.5t-22 -11.5t-20 -15.5t-18 -17.5t-14 -16t-9 -12l-3 -4q-1 2 -3.5 4.5t-9.5 11t-14 16.5t-17.5 17t-20.5 16t-21 11.5t-21 4.5q-18 0 -41.5 -16t-36.5 -29.5t-24 -27.5v-311q0 -47 -9.5 -79.5
t-28.5 -52.5q-6 -7 -13.5 -12.5t-15.5 -10t-18 -7.5q-27 -9 -64 -9q-34 0 -60.5 10t-44.5 29t-28 45q-5 13 -7 28t-2 31v30h84q0 -65 11 -79q7 -11 19 -16.5t28 -5.5q6 0 14.5 2t14.5 4l5 1q16 12 20 20q2 4 4.5 11.5t3.5 13.5l2 5q0 3 0.5 7.5t1 15t0.5 17.5v318
q-62 70 -103 70q-21 0 -50 -20t-47 -41l-18 -20q-7 9 -18.5 22.5t-40 36t-47.5 22.5t-45 -20t-43 -41l-16 -20q-1 9 -0.5 24.5t7 59.5t19 85t42 93t71 91t110.5 70t156 39l61 86l59 -86q70 -4 129 -23t99 -45.5t71.5 -63t50 -71.5t31 -75t17.5 -69.5t6.5 -59t1.5 -39.5v-16
v0zM977 348z" />
    <glyph glyph-name="uniE648" unicode="&#xe648;" 
d="M751 -212h-476q-34 0 -58 24t-24 58v860q0 34 24 58t58 24h476q34 0 58 -24t24 -58v-860q0 -22 -11 -41t-30 -30t-41 -11zM275 748q-8 0 -13 -5.5t-5 -12.5v-860q0 -5 2 -9t6.5 -6.5t9.5 -2.5h476q3 0 6.5 1.5t6 4t4 5.5t1.5 7v860q0 7 -5.5 12.5t-12.5 5.5h-476zM705 44
h-384v640h384v-640zM385 108h256v512h-256v-512zM513 -72zM468 -72q0 19 13 32t32 13t32 -13t13 -32t-13 -32t-32 -13t-32 13t-13 32z" />
    <glyph glyph-name="uniE649" unicode="&#xe649;" 
d="M744 -151h-464q-25 0 -43.5 18.5t-18.5 44.5v776q0 26 18.5 44.5t43.5 18.5h464q12 0 23.5 -5t20 -13.5t13.5 -20t5 -24.5v-776q0 -26 -18.5 -44.5t-43.5 -18.5zM280 720q-13 0 -22 -9.5t-9 -22.5v-776q0 -13 9 -22.5t22 -9.5h464q8 0 15.5 4.5t11.5 11.5t4 16v776
q0 13 -9 22.5t-22 9.5h-464zM512 -83q-11 0 -20.5 5.5t-15 14.5t-5.5 21q0 16 12 28t29 12q11 0 20.5 -5t15 -14.5t5.5 -20.5q0 -17 -12 -29t-29 -12zM512 -32q-10 0 -10 -10q0 -6 5 -8t10 0t5 8q0 2 -1.5 4.5t-3.5 4t-5 1.5zM732 28h-443q-6 0 -10.5 4.5t-4.5 10.5v622
q0 3 1 5.5t3.5 4.5t5 3.5t5.5 1.5h443q4 0 7.5 -2t5.5 -5.5t2 -7.5v-622q-1 -13 -15 -15zM305 59h412v590h-412v-590z" />
    <glyph glyph-name="uniE64A" unicode="&#xe64a;" 
d="M744 -151h-464q-25 0 -43.5 18.5t-18.5 44.5v776q0 26 18.5 44.5t43.5 18.5h464q12 0 23.5 -5t20 -13.5t13.5 -20t5 -24.5v-776q0 -26 -18.5 -44.5t-43.5 -18.5zM280 720q-13 0 -22 -9.5t-9 -22.5v-776q0 -13 9 -22.5t22 -9.5h464q8 0 15.5 4.5t11.5 11.5t4 16v776
q0 13 -9 22.5t-22 9.5h-464zM512 -83q-11 0 -20.5 5.5t-15 14.5t-5.5 21q0 16 12 28t29 12q11 0 20.5 -5t15 -14.5t5.5 -20.5q0 -17 -12 -29t-29 -12zM512 -32q-10 0 -10 -10q0 -6 5 -8t10 0t5 8q0 2 -1.5 4.5t-3.5 4t-5 1.5zM732 28h-443q-6 0 -10.5 4.5t-4.5 10.5v622
q0 3 1 5.5t3.5 4.5t5 3.5t5.5 1.5h443q4 0 7.5 -2t5.5 -5.5t2 -7.5v-622q-1 -13 -15 -15zM305 59h412v590h-412v-590z" />
    <glyph glyph-name="uniE64B" unicode="&#xe64b;" horiz-adv-x="1123" 
d="M850 683q-45 41 -98.5 69.5t-115 44t-125.5 15.5q-104 0 -198.5 -40.5t-163 -109t-109 -163.5t-40.5 -199t40.5 -199t109 -163.5t163 -109t198.5 -40.5q158 0 286.5 88t187.5 230q-6 24 -23.5 31t-31.5 -9q-26 -62 -69 -114.5t-97 -89t-119 -57t-134 -20.5q-73 0 -142 23
t-125 65t-97.5 97.5t-64.5 124.5t-23 143q0 92 36 176t96.5 144.5t144 96.5t175.5 36q172 0 300 -114q22 -5 33.5 7.5t5.5 36.5zM488 47l26 -24l28 23l556 485q12 11 13 27t-9.5 28.5t-27 13.5t-28.5 -9l-529 -462l-201 192q-11 11 -27.5 11t-28 -12t-11 -28.5t12.5 -27.5z
" />
    <glyph glyph-name="uniE64C" unicode="&#xe64c;" 
d="M512 -212q-104 0 -199 40.5t-163.5 109t-109 163.5t-40.5 199t40.5 199t109 163.5t163.5 109t199 40.5q83 0 161.5 -26t141 -73.5t110 -110t73.5 -141t26 -161.5t-26 -161.5t-73.5 -141t-110 -110t-141 -73.5t-161.5 -26v0zM512 739q-89 0 -170 -35t-140 -94t-94 -140
t-35 -170t35 -170t94 -140t140 -94t170 -35t170 35t140 94t94 140t35 170t-35 170t-94 140t-140 94t-170 35v0zM758 436zM563 300l163 163q6 6 8.5 15t0 17.5t-8.5 14.5l-4 4q-6 6 -14.5 8.5t-17.5 0t-15 -8.5l-163 -163l-163 163q-6 6 -14.5 8.5t-17.5 0t-15 -8.5l-4 -4
q-4 -4 -6.5 -8.5t-3 -9.5t0 -10.5t3 -10t6.5 -8.5l163 -163l-163 -163q-5 -4 -7.5 -10.5t-2.5 -13t2.5 -13t7.5 -10.5l4 -4q4 -5 10.5 -7.5t13 -2.5t13 2.5t10.5 7.5l163 163l163 -163q3 -3 7 -5.5t8 -3.5t8.5 -1t8.5 1t8 3.5t7 5.5l4 4q10 9 10 23.5t-10 23.5z" />
    <glyph glyph-name="uniE64D" unicode="&#xe64d;" 
d="M511 736q-73 0 -141 -22.5t-123 -64t-96.5 -96.5t-64.5 -123.5t-23 -141.5q0 -91 35.5 -174t95.5 -143t143 -95.5t174.5 -35.5t174 35.5t142.5 95.5t95.5 143t35.5 174q0 73 -22.5 141.5t-64 123.5t-96.5 96.5t-123.5 64t-141.5 22.5zM511 -96q-104 0 -192.5 51.5
t-140 140t-51.5 192.5q0 78 30.5 149t82 122.5t122.5 82t149 30.5q105 0 193.5 -51.5t140 -140t51.5 -192.5q0 -78 -30.5 -149t-82 -122.5t-122.5 -82t-150 -30.5zM563 312q80 81 161 141l3 3q2 2 5 8.5t-1 10.5q-3 6 -8.5 7.5t-10.5 0.5l-4 -1q-87 -43 -184 -132
q-99 93 -190 140l-16 3q-9 -1 -15 -6q-7 -6 -8 -13t1 -10l2 -4q90 -66 177 -156q-143 -143 -177 -192q-17 -25 10 -52q5 -5 12 -8.5t13 -4t12 0.5t11.5 3.5t9.5 5t6 5.5q5 7 53 79t90 119q40 -45 87.5 -117.5t61.5 -88.5q4 -5 10 -8.5t14.5 -5t19.5 2.5t23 14q5 4 8.5 10
t4 11.5t0.5 11t-1.5 10.5t-3 8.5t-3.5 5.5q-11 16 -34.5 44.5t-61 71t-77.5 82.5z" />
    <glyph glyph-name="uniE64E" unicode="&#xe64e;" 
d="M314 306q-13 13 -31.5 13t-30.5 -13q-9 -9 -12 -20.5t0 -23t12 -19.5l182 -182q13 -13 31 -13q9 0 17 3t14 10l417 417q13 13 13 31t-13 31t-31.5 13t-31.5 -13l-385 -385zM981 349q-1 14 -12 23t-25 7q-9 -1 -16 -6t-11 -13.5t-3 -17.5q1 -10 2 -20.5t1 -21.5
q0 -110 -54.5 -203t-147.5 -147.5t-203 -54.5t-203 54.5t-147.5 147.5t-54.5 203q0 66 20.5 127.5t58 111.5t87.5 87.5t111.5 58t127.5 20.5q30 0 59 -4.5t57 -13t55 -21t52 -28.5q7 -5 16 -5.5t17 3.5t13 11q8 12 5 25.5t-14 21.5q-118 78 -260 78q-96 0 -183.5 -37.5
t-150.5 -100.5t-100.5 -150.5t-37.5 -183.5t37.5 -183.5t100.5 -150.5t150.5 -100.5t183.5 -37.5t183.5 37.5t150.5 100.5t100.5 150.5t37.5 183.5q0 12 -0.5 24.5t-2.5 24.5z" />
    <glyph glyph-name="uniE64F" unicode="&#xe64f;" horiz-adv-x="1485" 
d="M1456 646l-829 -829q-39 -39 -93 -25q-26 7 -45 25l-461 461q-28 29 -28 69t28.5 68.5t68.5 28.5t69 -28l392 -393l760 761q29 28 69 28t69 -28q14 -14 21 -32.5t7 -37t-7 -36.5t-21 -32z" />
    <glyph glyph-name="uniE650" unicode="&#xe650;" 
d="M957 557l-516 -516l-264 264l64 64l200 -200l452 452zM497 -133q-88 0 -168.5 34.5t-138.5 93t-92.5 139t-34.5 168.5q0 70 22 136.5t62 120t93.5 93.5t120 62t136.5 22q54 0 105.5 -12.5t98.5 -37.5t87 -61l-31 -35q-111 99 -260 99q-105 0 -194 -52t-141 -141t-52 -194
t52 -194.5t141 -141.5t194.5 -52t194.5 52t141 141.5t52 194.5q0 19 -2 37.5t-5.5 36.5t-8.5 36l45 13q9 -30 13.5 -61t4.5 -62q0 -88 -34.5 -168.5t-92.5 -139t-138.5 -93t-169.5 -34.5zM497 -133z" />
    <glyph glyph-name="uniE651" unicode="&#xe651;" 
d="M498 100l-306 316l79 63l176 -140q46 55 101 112t153 140t201 146l18 -44q-96 -89 -187 -206t-149 -215.5t-86 -171.5v0zM883 445q5 -31 5 -62q0 -102 -50.5 -189t-137 -137t-189 -50t-189 50t-137 137t-50.5 189t50.5 189t137 137.5t188.5 50.5q25 0 49.5 -3.5
t47.5 -9.5t45 -15v75q-68 23 -142 23q-91 0 -174 -35q-9 -4 -17.5 -8t-17 -8.5t-16.5 -9t-16 -9.5l-16 -12q-8 -5 -15.5 -10.5t-15 -12t-14.5 -13t-14 -13.5q-62 -61 -96 -142q-35 -83 -35 -174t35 -174q34 -80 96 -142t142 -96q83 -35 174 -35q46 0 89.5 9t84.5 26
q81 34 143 96q30 31 54.5 66.5t40.5 75.5q36 83 36 174q0 31 -5 62h-71zM883 445z" />
    <glyph glyph-name="uniE652" unicode="&#xe652;" 
d="M424 51q-3 0 -6.5 1t-6.5 2.5t-6 3.5l-375 311q-5 3 -7.5 8.5t-3 11t1 11.5t5.5 11q8 9 20 10t22 -7l353 -291l532 599q8 9 20.5 9.5t21.5 -7.5t10 -20.5t-8 -21.5l-551 -621q-8 -10 -22 -10z" />
    <glyph glyph-name="uniE653" unicode="&#xe653;" 
d="M102 393l19 19l279 -284l-14 -14zM386 114l-14 14l517 521l19 -18z" />
    <glyph glyph-name="uniE654" unicode="&#xe654;" 
d="M51 289l323 -258q14 -11 30 -13.5t32 3t27 17.5l518 581l43 48l-97 86l-43 -48l-518 -581l89 7l-323 259l-51 40l-81 -101z" />
    <glyph glyph-name="uniE655" unicode="&#xe655;" 
d="M393 180q-9 -5 -18 -8t-15 -3t-11.5 1.5t-9 4t-6.5 6t-5 6.5t-3 6t-1 5v1l-77 179q-19 55 4 50q9 -2 22 -12q47 -36 82 -57q16 -10 35 -11.5t30 1.5l11 3l499 231q-47 58 -110.5 100.5t-142.5 66t-163 23.5q-103 0 -197 -35.5t-162 -95t-108.5 -142t-40.5 -173.5
q0 -104 51.5 -195.5t141.5 -154.5l-21 -122q-1 -1 -1.5 -3t-0.5 -8t2.5 -8t8 -4t16.5 4q29 14 123 77q91 -32 188 -32q103 0 197 35.5t162 95t108.5 142t40.5 173.5q0 105 -53 198q-79 -47 -154 -92t-172.5 -104t-165 -99t-84.5 -50z" />
    <glyph glyph-name="uniE656" unicode="&#xe656;" 
d="M512 -128q139 0 257 68.5t186.5 186.5t68.5 257t-68.5 257t-186.5 186.5t-257 68.5t-257 -68.5t-186.5 -186.5t-68.5 -257t68.5 -257t186.5 -186.5t257 -68.5zM462 573v84h93v-84h189v-36l-189 -2v-52l156 -1q-3 -29 -22 -83q-4 -8 -7 -16t-6 -15t-6 -13l-6 -11
q-2 -5 -4.5 -9t-4 -7t-3 -5t-1.5 -3l-1 -1l304 -99q-11 -29 -24 -54q-4 -7 -8.5 -15t-8.5 -14t-7.5 -11.5t-5.5 -8.5l-2 -3l-290 138q-2 -3 -6 -7t-16.5 -16t-25 -22.5t-30 -22.5t-33.5 -20q-100 -48 -189 -26q-56 13 -86.5 48.5t-24.5 94.5q4 38 32 64t62.5 36t74.5 10
q32 0 84 -11.5t89 -23.5l36 -12q0 1 1 2l2 4q1 3 2.5 6.5t3.5 8.5t4 10.5t4.5 11.5t5.5 12q5 14 8.5 27t4.5 20l1 7h-292v29h142v56l-177 -1v36h177zM540 286q-4 -4 -10 -11t-27 -25t-42 -31.5t-51.5 -24.5t-58.5 -11q-37 0 -62.5 7.5t-38 21t-18 27t-5.5 28.5q0 31 24.5 53
t83.5 26q18 1 39 -1.5t40 -8t38 -12t34.5 -13.5t28 -12.5t18.5 -9.5z" />
    <glyph glyph-name="uniE657" unicode="&#xe657;" 
d="M970 600l-585 -330q-2 -1 -4.5 -2t-9.5 -3t-13.5 -2t-14.5 3.5t-14 11.5l-99 207q-1 1 -1 3v9q0 6 3 8.5t9.5 5t18.5 -3.5l81 -56l26 -17q1 -1 3 -2.5t9 -5t14.5 -4.5t20.5 1.5t27 10.5q46 24 489 220q-70 82 -180.5 130t-237.5 48q-139 0 -257 -56t-186.5 -152.5
t-68.5 -210.5q0 -90 43 -169t119 -138v0q6 -4 11 -8q26 -24 17 -56q-3 -8 -9 -27q-25 -72 -11 -78q8 -4 28 9q13 7 30.5 19t28 19t25.5 15t27.5 11t29.5 3t36 -5h1q66 -15 136 -15q139 0 257 56t186.5 153t68.5 211q0 49 -14 96.5t-40 90.5z" />
    <glyph glyph-name="uniE658" unicode="&#xe658;" 
d="M284 104q-31 0 -57 5.5t-43 14.5t-31 20.5t-20.5 24.5t-11.5 25.5t-4 24t1 19.5q7 35 42 63t93 28q131 0 284 -75q-55 -71 -120 -110.5t-133 -39.5zM1024 195v504q0 82 -57.5 139.5t-139.5 57.5h-630q-82 0 -139.5 -57.5t-57.5 -139.5v-630q0 -82 57.5 -139.5
t139.5 -57.5h630q48 0 89.5 21t69 58.5t35.5 82.5q-272 117 -396 177q-72 -87 -148.5 -130.5t-177.5 -43.5q-105 0 -169 56.5t-56 137.5q3 24 10.5 46t26.5 47.5t46.5 42.5t74.5 25.5t107 3.5q20 -2 39 -4.5t33.5 -5t31.5 -6.5t28 -7t28.5 -8.5t27.5 -8.5t30.5 -10t31.5 -11
q35 66 57 140h-398v39h197v71h-240v43h240v102q0 2 1 4.5t6 7t13 4.5h98v-118h256v-43h-256v-71h209q-28 -116 -85 -213q61 -22 337 -106z" />
    <glyph glyph-name="uniE659" unicode="&#xe659;" 
d="M708 419v319q-3 1 -9 4t-26 10.5t-41.5 13t-53.5 10.5t-63.5 5.5t-71 -5.5t-77.5 -19zM738 231v494q8 -4 20.5 -11t47.5 -32t64.5 -55.5t60.5 -81t46 -107.5zM638 88l344 320l3 -6q2 -4 6.5 -18.5t7.5 -31.5t3 -45t-4 -58.5t-15.5 -73t-30.5 -87.5h-314zM462 47h465
q-2 -6 -7 -16.5t-25.5 -40t-47 -55t-74 -54.5t-103.5 -47zM310 149v-300q5 -3 14.5 -8t41.5 -15.5t67.5 -15.5t91 -3t113.5 17zM41 133l236 209v-475q-6 2 -16 6.5t-39.5 24.5t-57 47t-62.5 77t-61 111zM35 166q-2 7 -5 19.5t-8.5 50.5t-5.5 74.5t10 86t31 91.5h324zM77 521
q3 7 8.5 17.5t27.5 41t48.5 57t72 58t97.5 51.5l221 -225h-475z" />
    <glyph glyph-name="uniE65A" unicode="&#xe65a;" 
d="M512 -211q-104 0 -199 40q-92 39 -162.5 110t-109.5 162q-40 96 -40 200t40 199q39 91 109 162q24 24 50 44t54 36.5t59 29.5q95 40 199 40q34 0 68 -4.5t67 -13.5t64 -22q92 -39 162.5 -110t109.5 -162q20 -48 30 -98t10 -101q0 -104 -40 -200q-39 -91 -109.5 -162
t-162.5 -110q-95 -40 -199 -40zM512 777q-97 0 -185 -37q-86 -37 -152 -102.5t-102 -151.5q-37 -89 -37 -185.5t37 -185.5q36 -85 102 -151t152 -102q88 -38 185 -38t185 38q86 36 152 102t102 151q37 89 37 186t-37 185q-36 86 -102 151q-17 17 -34.5 31.5t-36.5 27.5
t-39 24t-42 20q-44 18 -90.5 27.5t-94.5 9.5zM512 777zM688 294q-7 2 -9.5 3t-5 5.5t1.5 10.5q19 49 0 76q-19 26 -64.5 26t-105.5 -25q-19 -8 -19 3q0 3 1 6q19 61 -8 89q-8 7 -19 11t-24.5 4.5t-29 -3t-32.5 -10t-35 -16.5t-36.5 -22.5t-37 -28t-36.5 -33.5
q-114 -113 -114 -214q0 -60 47.5 -107.5t119.5 -71t153 -23.5q74 0 140.5 20t110 52t69 70t25.5 74q0 39 -27 65.5t-65 38.5zM435 19q-94 -9 -165.5 28t-77.5 99t56.5 112.5t157.5 60.5q62 6 116.5 -9t88.5 -46.5t38 -72.5q6 -62 -56.5 -112.5t-157.5 -59.5zM825 524
q-37 41 -88.5 57t-103.5 5q-12 -2 -18.5 -12.5t-4 -22t13 -18t21.5 -4.5q37 8 74 -3.5t63 -40.5t34 -67t-4 -73q-4 -12 1.5 -22.5t17 -14.5t22.5 1.5t14 17.5q17 49 6 102.5t-48 94.5zM748 455q-18 20 -43 27.5t-50 2.5q-10 -2 -16 -11t-3.5 -19t11 -15.5t18.5 -3.5
q9 2 17 1t15.5 -5t13.5 -11q19 -20 10 -47q-3 -10 1.5 -19t14.5 -12q3 -1 6.5 -1.5t6.5 0.5t6 2.5t5.5 3.5t4.5 5t3 6q8 24 2.5 50t-23.5 46zM448 255q-45 12 -89.5 -7.5t-64.5 -59.5q-20 -41 -2.5 -80t62.5 -54q47 -15 95 5.5t67 63.5t-1 81.5t-67 50.5zM402 117
q-9 -14 -26 -19.5t-32 0.5q-14 7 -18 21.5t5 29t25.5 20t31.5 -1t19 -21t-5 -29.5zM442 169q-3 -6 -9.5 -8.5t-11.5 0.5q-14 5 -6 18.5t21 8.5q6 -2 8 -7.5t-2 -11.5zM442 169z" />
    <glyph glyph-name="uniE65B" unicode="&#xe65b;" 
d="M512 -198q-101 0 -194 39q-89 38 -158 107t-107 158q-39 93 -39 194q0 50 10 99t29 95q38 89 107 158t158 107q19 7 37.5 13.5t38 11t39 8t39.5 5t40 1.5q101 0 194 -39q29 -13 56.5 -29t53 -35.5t48.5 -42.5q34 -34 61 -74t46 -84q39 -93 39 -194q0 -50 -10 -99t-29 -95
q-38 -89 -107 -158q-17 -17 -35.5 -32.5t-38.5 -28.5t-41 -24.5t-43 -21.5q-93 -39 -194 -39v0zM512 764q-94 0 -180 -37q-42 -17 -79 -42t-69 -57q-16 -16 -30 -33.5t-26.5 -36t-23 -38t-19.5 -40.5q-18 -42 -27.5 -87.5t-9.5 -92.5q0 -94 37 -180q35 -84 99 -148t148 -99
q42 -18 87.5 -27.5t92.5 -9.5q94 0 180 37q84 35 148 99t99 148q18 42 27.5 87.5t9.5 92.5q0 10 -0.5 20.5t-1.5 21t-2 20.5l-4 20q-1 10 -4 20l-4 20q-3 10 -6.5 20t-7 19.5t-7.5 18.5q-17 42 -42 79t-57 69q-64 64 -148 99q-42 18 -87.5 27.5t-92.5 9.5v0zM444 172z
M639 415q11 0 24 -1q-16 77 -89 127.5t-167 50.5q-105 0 -179.5 -62.5t-74.5 -153.5q0 -100 102 -171l-25 -76l88 44q65 -13 89 -13q11 0 24 1q-3 9 -4.5 17.5t-2.5 17.5t-1 18q0 84 63 142.5t153 58.5v0zM502 484q5 0 9.5 -1t8 -3t6 -4.5t4.5 -6t3 -8t1 -8.5
q0 -15 -8.5 -23.5t-23.5 -8.5t-26.5 9t-11.5 23q0 22 27 30q6 1 11 1v0zM325 421q-15 0 -26.5 9t-11.5 22.5t11.5 22.5t26.5 9q14 0 22.5 -8.5t8.5 -22.5q0 -8 -2 -13.5t-6 -10t-10 -6.5t-13 -2v0zM871 218q0 29 -11.5 57.5t-32 51t-47 39.5t-59 26.5t-66.5 9.5
q-90 0 -153 -54t-63 -130q0 -51 28.5 -93t78.5 -67t109 -25q9 0 18.5 1t20 3.5t18 4t19.5 4.5l70 -38l-19 63q88 68 89 147v0zM585 249q-10 0 -17.5 8t-7.5 17.5t7.5 17.5t17.5 8q14 0 23 -7.5t9 -17.5q0 -7 -4 -12.5t-11.5 -9.5t-16.5 -4v0zM725 249q-5 0 -9.5 2.5t-8 6
t-6 8t-2.5 9.5q0 6 4 12t9.5 9.5t12.5 3.5q13 0 22 -7.5t9 -17.5t-9 -18t-22 -8v0zM725 249z" />
    <glyph glyph-name="uniE65C" unicode="&#xe65c;" horiz-adv-x="1031" 
d="M506.5 497q13.5 0 22 8t8.5 21q0 3 -1 6l-2 6q-1 3 -2.5 5t-3.5 4t-4 3.5t-5 2.5t-6 1.5t-6 0.5q-14 0 -24.5 -8t-10.5 -21t10.5 -21t24 -8zM342 555q-9 0 -17 -3.5t-13.5 -10t-5.5 -15.5t5.5 -15.5t13.5 -10t17 -3.5q13 0 21.5 8t8.5 21t-8.5 21t-21.5 8zM583 384
q-9 0 -16 -7t-7 -17q0 -4 2 -8t5 -7t7.5 -4.5t8.5 -1.5q13 0 21.5 6.5t8.5 14.5q0 10 -8.5 17t-21.5 7zM516 895q-188 0 -331 -122q-137 -117 -171 -292q-9 -48 -9 -97q0 -83 26 -161t73 -141t110 -110t141 -73t161 -26q104 0 198.5 40.5t162.5 109t108.5 163t40.5 198.5
t-40.5 198.5t-108.5 163t-162.5 109t-198.5 40.5zM419 255q-36 0 -82 13l-84 -42l24 71q-46 32 -70 71.5t-24 86.5q0 84 69 142t167 58q87 0 154.5 -46.5t82.5 -118.5l-22 3q-56 0 -102 -25.5t-72.5 -68.5t-26.5 -94q0 -23 7 -50h-9h-12zM766 173l17 -60l-63 36
q-5 -1 -22 -5t-28 -5.5t-22 -1.5q-83 0 -141.5 50t-58.5 121t58.5 121t141.5 50q80 0 140 -50.5t60 -120.5q0 -75 -82 -135zM714 384q-10 0 -17 -7t-7 -17q0 -5 3.5 -10t9 -8t11.5 -3q3 0 6.5 0.5t6.5 1.5t5.5 2.5t4.5 3.5t3 4t2 4.5t1 4.5q0 10 -8.5 17t-20.5 7z" />
    <glyph glyph-name="uniE65D" unicode="&#xe65d;" 
d="M512 832q-122 0 -225 -60t-163 -163t-60 -225t60 -225t163 -163t225 -60t225 60t163 163t60 225t-60 225t-163 163t-225 60zM632 678q38 -17 70 -43q7 -5 13.5 -11t12.5 -12q15 -15 27 -31t22 -33q2 -5 4.5 -9.5t4.5 -8.5l-154 -157q1 10 0 305zM478 700q4 1 8.5 1
t8.5 0.5t9 0.5h8q40 0 80 -10q10 -4 18 -6v-222l-212 216q19 7 39 12.5t41 7.5zM272 584q11 14 23 26q28 29 63 49l17 10l155 -157q-10 1 -300 0q3 8 6.5 15t7.5 14.5t8 14.5l10 14q4 7 10 14zM208 355q-2 9 -2.5 18t-0.5 17q0 41 11 81q3 10 6 19h218q-4 -3 -57 -56.5
t-104 -106.5l-51 -53q-16 39 -20 81zM321 146q-14 12 -26 23q-9 10 -18 20.5t-16.5 21.5t-13.5 23q-6 10 -10 18l155 156q-2 -9 0 -304q-10 3 -19 8t-17.5 10t-17.5 11t-17 13zM546 80q-18 -2 -35 -2q-13 0 -26.5 1t-26.5 3.5t-26 5.5l-6 2l-6 2q-3 1 -7 2v222
q6 -8 213 -216q-19 -8 -39 -13t-41 -7zM751 195q-11 -14 -23 -26q-15 -15 -30.5 -27.5t-33.5 -22.5q-9 -5 -17 -9l-154 156h300q-8 -19 -18.5 -37t-23.5 -34zM808 309q-3 -10 -6 -19h-218q3 2 56 56t104 106l52 53q8 -19 13 -39t7 -42q1 -4 1 -8.5t0.5 -8.5t0.5 -9v-9
q0 -40 -10 -80z" />
    <glyph glyph-name="uniE65E" unicode="&#xe65e;" 
d="M893 346q0 -40 -21 -82q-7 -13 -16.5 -26.5t-21 -27t-25.5 -25.5q-41 -39 -96 -69t-129 -48t-154.5 -18t-157 19.5t-137.5 54t-98 88t-37 116.5q0 67 40 143q20 37 48 75t65 75q96 99 194.5 138t140.5 -4q38 -38 12 -122q-2 -9 -0.5 -12.5t5.5 -4t8 0.5l8 2l3 1
q80 35 141 35t87 -36t0 -104q0 -3 -1 -6t-1 -5q-2 -4 2 -8l3 -2h2l2 -2q3 -1 10 -3q32 -11 58.5 -28t45.5 -47q10 -16 15 -33t5 -35v0zM717 348q-5 56 -51 99t-119 63.5t-157 12.5q-127 -13 -211 -82.5t-76 -154.5q6 -56 51.5 -99t118.5 -63q19 -5 38 -8.5t38.5 -5
t39.5 -1.5t41 2q128 14 211.5 83t75.5 154v0zM539 255q-26 -60 -90.5 -88t-128.5 -7q-61 20 -84 74t4 109t86.5 81.5t120.5 11.5q63 -17 90 -70t2 -111v0zM386 247q12 19 6 40q-3 10 -9.5 17.5t-16.5 11.5q-19 8 -41.5 0.5t-34.5 -26.5q-12 -20 -7 -40t24.5 -29.5t42.5 -1.5
t36 28v0zM439 317q5 8 2.5 16t-10.5 10q-8 3 -16 0t-12 -11q-5 -9 -3 -15.5t10 -10.5q8 -3 17 0q3 1 5 3l4 4q2 2 3 4v0zM954 805q50 -56 64.5 -130t-7.5 -141q-3 -8 -8 -13.5t-12 -9.5t-14.5 -4.5t-15.5 1.5q-15 6 -22.5 20.5t-2.5 30.5q16 47 5.5 99.5t-45.5 92.5
q-18 20 -39 34t-46 22q-49 15 -99 5q-16 -4 -29.5 5t-17.5 26q-1 8 0 15.5t6 14.5q9 13 25 17q70 15 139 -7q35 -11 64.5 -30.5t54.5 -47.5v0zM793 748q34 -11 58 -38q6 -7 10.5 -14.5t8.5 -15.5t7 -16.5t5 -17.5q7 -36 -4 -68q-5 -14 -17 -20t-25 -2t-20 17q-2 4 -3 8.5
t-0.5 8.5t1.5 9q11 37 -14 65q-8 9 -17.5 14.5t-20.5 6.5t-23 -1q-7 -1 -13.5 0t-12.5 5q-12 7 -14 21q-1 4 -1 7t0.5 6.5t2 6.5t3.5 6q3 6 8.5 10t12.5 5q34 8 68 -3v0zM793 748z" />
  </font>
</defs>
</svg>
